<svg width="617" height="103" viewBox="0 0 617 103" fill="none" xmlns="http://www.w3.org/2000/svg">
<path d="M564.5 22.8067C446.971 -4.99987 154.722 5.8371 128.866 6.39919C112.408 6.75696 96.8977 9.64381 80.6636 12.1301C67.0447 14.2159 53.775 15.232 40.4687 19.1956C30.6322 22.1256 18.1462 23.7788 11.1075 31.5995C6.96708 36.2 5.77107 45.465 4.67004 51.383C2.76655 61.6142 4.2693 69.2335 14.4048 73.5216C22.7512 77.0528 32.6188 78.499 41.4107 80.5871C53.4153 83.4382 64.1338 87.8808 76.6598 89.0657C97.7768 91.0633 119.381 89.8508 140.564 89.8508C168.538 89.8508 196.512 89.8508 224.486 89.8508C269.077 89.8508 313.669 89.8508 358.26 89.8508C396.335 89.8508 434.411 89.8508 472.486 89.8508C497.634 89.8508 522.782 89.8508 547.93 89.8508C564.833 89.8508 569.594 94.9423 586 89.8508M586 89.8508C594.32 87.2688 613.404 78.9335 613.404 70.0674C613.404 55.3993 607.712 51.661 594.562 46.3586C575.911 38.838 553.392 35.7831 533.563 32.6986C510.136 29.0544 486.442 25.9151 462.908 22.8069C426.873 18.0476 390.484 11.9506 354.099 10.7955C327.829 9.96153 301.41 10.717 275.122 10.717C231.604 10.717 188.086 10.717 144.567 10.717C116.41 10.717 85.2492 7.13982 57.9754 15.6629C40.2796 21.1928 27.9697 29.2458 18.173 45.5736C8.82487 61.1538 0.00844097 78.6782 18.4871 90.5573C31.482 98.9112 48.3493 99.7425 63.3923 99.7425C82.0767 99.7425 100.761 99.7425 119.445 99.7425C171.285 99.7425 223.125 99.7425 274.965 99.7425C332.297 99.7425 389.642 100.112 446.971 99.7425C482.475 99.5135 523.465 98.2272 558.5 94.5C569.275 93.3537 575.449 92.2334 586 89.8508Z" stroke="#FF7870" stroke-width="6" stroke-linecap="round"/>
</svg>
