<svg width="1182" height="499" viewBox="0 0 1182 499" fill="none" xmlns="http://www.w3.org/2000/svg">
<path fill-rule="evenodd" clip-rule="evenodd" d="M578.535 0C538.822 0 499.111 0.905848 459.45 3.00392L456.841 3.14155C434.933 4.29569 410.329 5.5918 387.954 9.80016C326.617 9.19422 264.974 9.71068 203.898 11.1973C194.018 11.4378 184.157 11.7683 174.311 12.1841C139.713 11.4111 108.809 10.2828 86.5621 8.70004C84.6125 8.56133 82.8816 9.62993 82.6958 11.0868C82.5102 12.5437 83.9402 13.8372 85.8898 13.9759C94.6373 14.5983 104.703 15.1506 115.791 15.6388C91.0757 17.4995 66.4251 19.8465 41.7927 22.6068C33.8229 23.5 15.2576 25.7104 0 27.7024V33.0829C15.3453 31.0677 34.6418 28.7673 42.8444 27.8479C86.5862 22.9464 130.352 19.3572 174.41 17.4881C229.997 18.7265 294.926 19.0495 348.777 18.8735C353.789 18.8572 358.709 18.8366 363.517 18.8118C363.368 19.0169 363.231 19.2261 363.106 19.4392C361.597 22.029 362.292 24.5594 363.824 26.7258C316.022 28.0771 268.399 32.1741 221.315 40.3546C217.815 40.279 214.315 40.2052 210.815 40.1333C180.855 39.5178 151.046 39.179 121.264 38.8405C86.8231 38.4492 52.4163 38.0581 17.848 37.24C15.6987 37.1891 12.5684 37.2372 9.02107 37.2916L7.52409 37.3144C5.16468 37.3495 2.62312 37.3831 0 37.3933V42.6932C2.6969 42.6828 5.29094 42.6484 7.66553 42.613L9.15173 42.5906C12.758 42.5355 15.6748 42.491 17.6235 42.5371C52.064 43.3522 86.7016 43.7472 121.306 44.1417C146.011 44.4233 170.701 44.7049 195.288 45.1389C169.14 50.2601 142.96 56.5048 118.63 65.0776C113.127 67.0168 107.942 69.1143 103.744 71.314C99.6395 73.4649 96.0595 75.9259 94.3172 78.6934C93.4106 80.1335 92.9608 81.7235 93.2941 83.3881C93.6274 85.0521 94.6969 86.5576 96.307 87.888C99.4168 90.4578 104.823 92.6097 112.459 94.4906C123.718 97.2639 135.317 99.4595 147.098 101.223C148.405 101.744 149.889 102.194 151.5 102.592C158.072 104.216 167.278 105.107 175.983 105.649C183.307 106.105 190.53 106.325 195.902 106.489C196.773 106.516 197.6 106.541 198.367 106.566C214.943 107.706 231.445 108.418 247.459 109.088C249.537 109.175 251.617 109.26 253.695 109.342C242.7 110.039 231.708 110.827 220.721 111.717C214.824 112.195 208.857 112.665 202.837 113.139C151.944 117.15 97.2309 121.462 48.6034 133.047C48.2091 133.141 47.7819 133.225 47.2441 133.332C47.0252 133.375 46.7881 133.422 46.5273 133.475C45.7122 133.64 44.7236 133.851 43.7836 134.136C42.877 134.41 41.7374 134.832 40.7979 135.522C39.7611 136.283 38.9731 137.378 39.0377 138.751C39.1027 140.133 40.0131 141.185 41.1376 141.88C42.1541 142.507 43.3425 142.852 44.2815 143.062C45.6096 143.359 47.3162 143.548 48.4511 143.674C48.8086 143.713 49.1095 143.746 49.3237 143.775C53.3311 144.306 57.3766 144.657 61.4014 144.923C40.8494 148.494 20.333 152.323 0 156.533V162.034C28.4649 156.102 57.3365 150.925 86.2219 146.157C132.073 148.112 178.378 148.097 224.169 146.417C227.516 146.294 230.863 146.163 234.209 146.026L233.748 146.102C231.178 146.525 226.175 147.363 222.389 148.346C221.429 148.595 220.487 148.868 219.65 149.165C218.861 149.445 217.952 149.819 217.211 150.315C216.586 150.734 215.19 151.855 215.615 153.511C216.005 155.032 217.659 155.771 218.456 156.071C219.397 156.426 220.635 156.68 221.783 156.877C221.955 156.906 222.131 156.935 222.312 156.964C197.58 158.699 173.045 161.722 148.814 165.78C118.964 170.779 89.4046 177.082 60.4087 184.173C57.4435 184.899 54.2938 185.636 51.0232 186.403C41.4825 188.638 30.9112 191.113 20.8975 194.222C13.6061 196.486 6.44126 199.133 0 202.359V208.879C6.74991 204.989 14.8887 201.827 23.6188 199.115C33.3097 196.107 43.4165 193.739 52.882 191.522C56.2214 190.74 59.4811 189.977 62.6146 189.21C91.4402 182.161 120.777 175.908 150.365 170.952C188.061 164.638 226.422 160.872 265.045 160.598C265.78 160.593 270.619 160.593 275.824 160.76C278.43 160.844 281.077 160.969 283.33 161.151L283.498 161.165C260.986 169.976 234.887 175.752 209.723 181.322C205.161 182.331 200.622 183.336 196.149 184.348C175.569 189.009 154.804 193.247 133.898 197.061C106.884 199.447 79.9323 202.299 53.0515 205.586C47.8128 206.227 37.5285 207.71 29.8441 209.035C26.087 209.683 22.6737 210.34 20.8411 210.875C20.4127 211.001 19.784 211.199 19.2391 211.487C19.0192 211.603 18.3776 211.953 17.9517 212.584C17.8226 212.774 17.701 213.011 17.6272 213.283C11.7944 213.306 5.91156 213.313 0 213.28V218.579C9.95102 218.634 19.8267 218.578 29.4566 218.525C38.7462 218.472 47.8086 218.42 56.488 218.472C130.558 218.911 204.352 216.309 278.103 212.907C249.631 217.655 221.184 223.28 193.191 229.965C165.38 233.064 137.533 235.917 109.682 238.512C93.9763 238.724 78.273 239.028 62.5748 239.427C58.9017 239.22 55.2398 238.985 51.6189 238.72C31.006 237.215 12.1627 234.781 0 230.998V236.69C5.81769 238.302 12.6748 239.639 20.1737 240.754C13.4477 241.003 6.7231 241.271 0 241.561V246.869C2.25953 246.771 4.51926 246.677 6.7792 246.583C4.5198 246.714 2.26006 246.841 0 246.967V252.281C21.3347 251.116 42.6321 249.627 63.8729 247.875C71.9857 247.203 80.0997 246.511 88.2141 245.797C105.781 246.286 121.949 246.308 133.31 246.216C92.6567 258.693 53.7226 273.861 17.9534 292.348C17.5135 292.576 17.0493 292.815 16.5639 293.064C12.0512 295.383 5.70705 298.645 0 302.618V310.255C6.03101 304.923 14.5535 300.535 20.6686 297.387C21.1194 297.155 21.5652 296.926 21.9878 296.708C62.5101 275.762 107.212 259.105 153.958 245.813C170.049 245.271 186.103 244.502 202.126 243.548C223.781 243.706 245.433 244.008 267.078 244.435C266.825 245.025 266.621 245.612 266.465 246.196C265.17 251.049 267.333 255.261 271.539 258.716C275.631 262.08 281.713 264.793 288.68 267.024C295.694 269.27 303.883 271.111 312.45 272.623C345.066 278.384 384.587 279.634 389.741 279.797C389.989 279.804 390.159 279.809 390.242 279.813C391.946 279.878 393.651 279.938 395.358 279.996C371.039 281.687 346.735 283.505 322.447 285.42C299.018 286.179 275.789 287.232 252.934 288.412C170.454 292.67 88.5235 301.203 7.46393 312.954C5.20219 313.282 2.69839 313.652 0 314.058V327.044C0.83787 327.205 1.69814 327.332 2.48622 327.438C3.78131 327.613 5.18238 327.765 6.41762 327.897C6.79132 327.938 7.1511 327.977 7.48691 328.014C51.6934 332.922 98.6159 331.298 142.949 329.765C146.593 329.637 150.218 329.512 153.824 329.392C200.158 327.834 246.421 325.12 292.59 321.822C278.172 325.187 263.851 328.761 252.452 331.982C251.636 332.211 244.412 334.384 236.885 336.946C233.118 338.228 229.218 339.628 225.981 340.945C224.364 341.603 222.868 342.26 221.616 342.887C220.428 343.482 219.221 344.168 218.387 344.91C216.825 346.3 215.509 348.089 216.006 350.08C216.519 352.133 218.665 353.304 220.481 353.951C224.071 355.23 229.734 355.679 235.499 355.829C236.835 355.864 238.218 355.884 239.634 355.889C205.399 360.127 171.039 364.879 137.116 370.817C110.963 369.077 85.2421 365.699 60.625 358.979C53.1737 356.944 39.0247 352.425 25.5678 346.779C18.8422 343.957 12.3627 340.884 7.00302 337.73C4.29834 336.14 1.94216 334.566 0 333.031V340.297C0.849189 340.838 1.72311 341.369 2.61664 341.896C8.36265 345.275 15.1809 348.499 22.0955 351.4C35.9191 357.2 50.4201 361.835 58.1915 363.957C77.317 369.179 97.0779 372.43 117.096 374.472C97.5363 378.201 78.1605 382.372 59.0773 387.119C46.2084 390.318 22.3356 396.994 2.04994 402.917C1.37121 402.774 0.687836 402.629 0 402.483V409.21C0.798831 408.975 1.60555 408.738 2.41915 408.5C14.2659 410.983 24.5721 413.02 32.2627 414.541C34.4681 414.976 36.5004 415.379 38.2486 415.727C42.5839 416.592 46.9263 417.453 51.2759 418.306C43.9122 420.597 35.8806 423.217 28.198 426.241C17.5283 430.444 7.15122 435.565 0 441.941V460.135C5.56216 463.615 14.431 466.004 23.4205 467.707C39.3091 470.715 57.6249 471.916 64.3077 472.353C65.4235 472.427 66.2149 472.478 66.6168 472.514C75.0029 473.256 83.3993 473.886 91.8045 474.418C61.5231 479.797 29.9828 485.479 0 493.379V499C31.1374 490.648 64.2455 484.765 96.3228 479.064C102.57 477.953 108.784 476.851 114.93 475.738L115.419 475.649C166.675 477.767 218.202 476.388 269.65 473.135C269.692 473.241 269.742 473.346 269.794 473.452C270.569 475.017 272.096 476.271 273.697 477.252C275.328 478.25 277.285 479.119 279.295 479.87C286.786 482.664 296.687 484.397 298.739 484.756C298.859 484.777 298.954 484.793 299.018 484.805C349.09 493.806 402.923 493.405 454.219 493.024C462.075 492.965 469.88 492.907 477.594 492.884C657.714 492.331 837.532 486.848 1016.57 471.454C1019.98 471.162 1023.39 470.871 1026.8 470.579C1064.72 467.341 1103.26 464.052 1140.75 458.005C1140.86 457.987 1141.03 457.96 1141.24 457.927C1144.73 457.378 1161.28 454.775 1175.39 450.645C1177.63 449.99 1179.86 449.279 1182 448.516V439.256C1104.54 445.13 1026.38 447.986 948.399 449.857C948.425 449.569 948.411 449.272 948.356 448.97C948.151 447.833 947.399 446.877 946.482 446.107C944.735 444.637 941.815 443.365 938.009 442.169C914.402 434.746 885.907 433.827 860.853 433.02C857.671 432.917 854.546 432.817 851.492 432.705C800.531 430.836 749.348 430.414 698.276 430.843C705.815 429.948 713.349 429.027 720.876 428.079C744.528 425.793 768.243 423.795 791.992 422.088C816.391 420.896 840.811 419.419 865.233 417.753L865.472 417.741C936.442 414.446 1008.36 413.573 1079.33 416.585C1099.96 417.46 1131.77 419.626 1152.45 422.71C1156.13 423.259 1163.77 424.542 1171.35 426.365C1175.14 427.275 1178.84 428.303 1182 429.421V423.625C1179.28 422.779 1176.39 422.007 1173.53 421.32C1165.6 419.415 1157.68 418.085 1153.84 417.513C1132.66 414.356 1100.46 412.172 1079.73 411.293C1074.55 411.074 1069.36 410.874 1064.17 410.695C1103.59 410.782 1142.94 411.575 1182 413.464V408.153C1128.04 405.557 1073.55 405.039 1019.19 405.581C1041.31 403.717 1063.4 401.859 1085.43 400.08L1088.67 399.819C1119.64 397.319 1150.97 394.791 1182 391.113V385.748C1150.8 389.474 1119.2 392.024 1087.75 394.561L1084.67 394.81C1061.34 396.695 1037.99 398.663 1014.61 400.633C988.637 402.822 962.621 405.014 936.617 407.093C923.005 407.434 909.421 407.811 895.876 408.205C893.467 408.275 891.055 408.344 888.642 408.413C867.297 409.028 845.745 409.648 824.246 410.817C834.688 407.747 844.539 404.057 853.328 399.531C856.546 397.875 858.91 396.035 859.957 393.918C861.089 391.632 860.482 389.456 858.926 387.643C857.465 385.939 855.17 384.532 852.695 383.365C850.175 382.179 847.203 381.119 844.106 380.185C831.972 376.517 816.424 374.313 813.703 373.928L813.594 373.912C801.916 372.253 790.075 371.018 778.137 370.117C811.036 367.617 843.778 364.091 876.351 360.03C885.065 358.943 894.119 357.913 903.362 356.862C921.01 354.856 939.366 352.764 957.389 350.054C971.779 347.89 986.086 345.312 999.859 342.028C1036.96 341.956 1074.07 341.239 1111.03 339.613C1115.62 339.412 1120.43 339.234 1125.38 339.052C1139.75 338.52 1155.36 337.944 1170.72 336.586C1174.48 336.253 1178.25 335.872 1182 335.432V330.065C1178 330.547 1173.96 330.962 1169.88 331.323C1154.79 332.657 1139.54 333.22 1125.23 333.75C1120.23 333.934 1115.34 334.116 1110.61 334.323C1080.41 335.651 1050.1 336.37 1019.77 336.626C1025.3 334.918 1030.71 333.058 1035.94 331.024C1043.62 328.042 1048.96 324.809 1051.93 321.312C1053.99 318.884 1054.87 316.381 1054.66 313.915C1059.43 313.36 1064.19 312.784 1068.94 312.189L1069.84 312.076C1089.84 309.569 1116.32 306.25 1136.2 300.266C1136.42 300.199 1136.74 300.111 1137.12 300.003C1137.63 299.858 1138.27 299.678 1138.99 299.464C1152.37 300.777 1167.5 302.582 1182 305.029V298.314C1171.38 296.77 1160.57 295.657 1149.74 294.838C1151.1 293.845 1152.31 292.592 1152.77 291.052C1153.54 288.522 1152.1 286.151 1149.3 284.132C1145.4 281.325 1140.03 279.23 1134.18 277.619C1128.29 275.997 1121.67 274.796 1115.07 273.872C1105.36 272.515 1095.36 271.718 1087.57 271.096C1084.81 270.876 1082.33 270.678 1080.23 270.485C966.651 260.036 849.102 261.331 734.944 266.092C778.664 262.5 822.613 258.29 866.089 253.083C867.917 253.113 869.742 253.141 871.562 253.171L873.063 253.194C920.925 253.957 968.862 253.821 1016.73 253.687C1035.31 253.634 1053.88 253.581 1072.43 253.581C1086.75 253.581 1101.25 253.786 1115.83 253.991C1137.81 254.3 1159.98 254.612 1182 254.233V248.935C1160.22 249.314 1138.29 249.004 1116.38 248.694C1101.71 248.488 1087.04 248.281 1072.43 248.281C1053.82 248.281 1035.22 248.334 1016.61 248.387C979.034 248.493 941.465 248.599 903.925 248.27C918.972 246.241 933.941 244.075 948.796 241.757L949.04 241.72C959.162 240.141 974.625 237.729 989.095 234.539C1053.73 234.639 1118.62 237.867 1182 244.35V239.003C1125.01 233.201 1066.81 230.022 1008.69 229.364C1009.49 229.103 1010.28 228.836 1011.05 228.564C1048.12 225.34 1084.94 221.167 1121.25 215.62C1122.16 215.483 1123.59 215.294 1125.41 215.052C1131.15 214.292 1140.8 213.011 1150.29 211.183C1156.58 209.969 1162.98 208.483 1168.38 206.68C1173.63 204.927 1178.54 202.678 1181.11 199.702C1181.48 199.269 1181.75 198.792 1181.9 198.285C1181.93 198.278 1181.97 198.271 1182 198.264V192.763C1181.01 192.971 1180.01 193.178 1179.02 193.381C1178.67 193.169 1178.31 192.978 1177.98 192.808C1175.67 191.648 1172.7 190.784 1170.76 190.333C1160.37 187.929 1142.12 186.182 1132.67 185.595C1131.4 185.516 1130.13 185.438 1128.86 185.362C1146.59 183.154 1164.31 180.888 1182 178.526V171.157C1143.61 166.953 1103.34 168.887 1065.72 172.099C1032.53 174.932 999.506 179.282 966.933 184.944C961.417 185.255 955.907 185.601 950.404 185.982C946.711 185.336 943.009 184.716 939.321 184.122C914.461 180.116 890.186 177.271 875.479 175.762C887.377 173.222 899.251 170.827 910.984 168.517C914.998 167.726 919.017 166.947 923.04 166.178C958.675 165.126 994.287 163.624 1029.85 161.555C1063.93 159.573 1098.39 157.482 1132.37 153.722C1136.84 153.227 1149.31 151.844 1156.44 149.879C1158.2 149.395 1160.04 148.771 1161.36 147.93C1162.02 147.502 1162.83 146.844 1163.23 145.914C1163.67 144.861 1163.43 143.802 1162.73 142.925C1162.1 142.145 1161.18 141.588 1160.33 141.184C1159.44 140.764 1158.38 140.393 1157.19 140.054C1154.8 139.377 1151.54 138.726 1147.27 138.085C1143.97 137.59 1140.65 137.121 1137.32 136.676C1152.2 135.435 1167.1 134.366 1182 133.473V128.157C1158.4 129.562 1134.82 131.411 1111.29 133.68C1085.35 131.12 1059.03 129.657 1033.14 128.217C1025.12 127.771 1017.13 127.327 1009.22 126.853C944.895 123.006 880.493 121.086 816.062 120.053C789.545 116.709 762.73 114.169 735.762 112.225C738.736 111.246 741.719 110.283 744.712 109.336C748.386 109.614 751.669 109.799 754.045 109.934C755.541 110.018 756.679 110.082 757.322 110.136C816.405 115.097 876.287 113.714 935.243 111.403C1011.87 108.4 1088.05 102.118 1163.99 94.698C1169.99 94.1122 1175.99 93.5235 1182 92.9254V87.5785C1175.69 88.2077 1169.38 88.8265 1163.07 89.4429C1087.21 96.8544 1011.24 103.118 934.872 106.111C876.264 108.408 817.185 109.764 759.014 104.945C774.612 100.297 790.403 96.0367 806.174 92.0742C829.922 86.1071 853.929 80.9357 878.146 76.4726C905.09 76.5211 932.035 76.5103 958.971 76.4995C970.458 76.4949 981.944 76.4903 993.424 76.4903C1004.8 76.4903 1016.19 76.5205 1027.6 76.5509C1078.97 76.6871 1130.62 76.8242 1182 74.2052V68.8933C1130.76 71.523 1079.25 71.387 1027.72 71.251C1016.29 71.2208 1004.85 71.1906 993.424 71.1906C981.949 71.1906 970.476 71.1952 959.002 71.1997H958.928C942.229 71.2065 925.534 71.213 908.837 71.2056C998.251 56.9688 1090.16 51.7624 1182 51.2683V45.9681C1079.55 46.5172 976.762 52.9105 877.295 71.1713C860.063 71.1397 842.835 71.0835 825.608 70.9876L830.05 70.6638C880.519 66.9866 931.787 63.2512 981.199 54.818L981.4 54.7841C983.672 54.4013 999.357 51.7588 1011.62 47.8559L1011.76 47.8114C1018.68 47.4337 1024.04 47.1291 1026.48 46.9645L1027.07 46.9248C1028.89 46.8029 1032.27 46.5774 1036.3 46.2515C1073.72 44.8255 1111.23 44.31 1148.68 44.2745C1159.79 44.2641 1170.9 44.298 1182 44.4475V39.1466C1170.87 38.9977 1159.75 38.9643 1148.67 38.9748C1121.9 39.0002 1095.06 39.2703 1068.23 39.9434C1068.43 39.6641 1068.59 39.3571 1068.7 39.0202C1069.23 37.3744 1068.19 36.0239 1067.32 35.2301C1065.64 33.6828 1062.57 32.3487 1059.61 31.2792C1053.42 29.0395 1045.02 27.0413 1040.15 26.2965C1016.26 22.6501 991.84 20.3816 967.389 18.6006C961.971 18.1517 956.659 17.7886 951.621 17.4447C948.933 17.261 946.321 17.0824 943.815 16.8993C933.395 16.1375 922.958 15.5224 912.509 15.037C906.395 14.645 900.306 14.2415 894.245 13.812C789.581 6.39438 684.047 0 578.535 0ZM251.546 41.0493C290.576 35.6285 329.955 32.8256 369.5 31.8798C371.408 33.1682 373.543 34.3695 375.692 35.4536C379.611 37.429 383.814 39.1285 387.344 40.3603C392.237 42.0682 397.239 43.6479 402.332 45.1129C384.59 44.6379 366.848 44.1434 349.101 43.649C316.601 42.7432 284.08 41.8372 251.546 41.0493ZM390.346 35.5585C402.043 39.6415 414.404 42.9757 427.146 45.763C433.231 45.9181 439.314 46.0703 445.397 46.2179C452.205 44.6913 460.297 43.1978 468.389 41.8393C486.284 38.8352 504.66 36.416 509.83 35.7354C510.586 35.6356 511.066 35.5727 511.213 35.5515C511.915 35.4488 512.619 35.3467 513.324 35.2451C469.157 32.5393 424.922 30.9937 380.873 31.6583C384.086 33.2035 387.46 34.5511 390.346 35.5585ZM348.624 48.9397C356.983 49.1727 365.342 49.4056 373.703 49.6365C310.417 53.8443 247.62 61.9299 187.078 75.645C186.597 75.754 170.194 79.4817 157.515 84.1336C154.33 85.302 151.296 86.559 148.772 87.8659C146.321 89.1352 144.027 90.6138 142.689 92.2965C142.084 93.0575 141.609 93.942 141.48 94.9211C132.374 93.4071 123.417 91.6094 114.68 89.4572C107.363 87.6551 103.41 85.8562 101.567 84.3332C100.701 83.6174 100.396 83.0412 100.308 82.6034C100.22 82.1663 100.303 81.635 100.735 80.9495C101.668 79.4663 103.986 77.6601 107.816 75.6533C111.552 73.6956 116.337 71.7451 121.655 69.8713C153.105 58.7895 187.888 51.6274 222.029 45.6721C264.21 46.5877 306.41 47.7635 348.624 48.9397ZM149.649 96.1994C165.786 98.5728 182.321 100.137 198.877 101.277L199.172 101.287C227.585 102.212 252.504 102.315 281.236 101.864C414.014 99.7799 546.949 88.5951 679.454 77.4471C689.614 76.5924 699.791 75.7358 709.947 74.8856C652.343 73.6973 594.648 71.4368 537.392 66.0682C521.803 65.8378 506.232 65.4598 490.691 64.9128C490.79 64.9164 475.403 64.8722 460.283 64.003C452.682 63.566 444.895 62.9109 438.855 61.9133C435.86 61.4183 433.094 60.808 430.952 60.0243C429.075 59.338 426.459 58.082 425.967 55.8472C425.633 54.3347 426.579 53.1306 427.451 52.3858C427.501 52.3429 427.553 52.3005 427.605 52.2582C346.752 55.0136 266.049 63.2927 189.135 80.7169C188.652 80.8264 172.748 84.4488 160.64 88.8909C157.628 89.9962 154.936 91.1217 152.811 92.2221C150.613 93.3603 149.335 94.3137 148.786 95.0041C148.663 95.158 148.6 95.2716 148.568 95.3456C148.552 95.382 148.545 95.4078 148.541 95.4237C148.553 95.4401 148.58 95.4942 148.615 95.5307C148.768 95.6896 149.082 95.9212 149.649 96.1994ZM479.341 104.95C481.559 104.974 483.781 104.998 486.003 105.021C490.634 104.879 495.265 104.728 499.894 104.567C548.701 102.869 597.541 99.696 646.098 95.5145C664.96 93.8903 696.106 90.8617 715.179 87.8385C715.505 87.7867 715.885 87.7253 716.311 87.6548C721.457 84.8735 728.918 82.2026 737.759 79.6511C740.684 78.807 743.788 77.9684 747.045 77.1369C724.869 78.9598 702.666 80.828 680.442 82.6981C569.707 92.0152 458.408 101.38 347.151 105.429C391.192 104.426 435.269 104.468 479.341 104.95ZM221.485 116.986C255.525 114.229 289.625 112.45 323.773 111.367C325.554 111.399 327.334 111.43 329.111 111.459C269.094 115.164 209.621 121.697 150.462 130.659C128.999 133.911 107.337 137.251 85.6489 140.824C82.28 140.678 78.9136 140.522 75.5504 140.354C74.4301 140.299 73.315 140.245 72.2046 140.192C64.8074 139.837 57.6244 139.493 50.5629 138.557C50.2047 138.509 49.7466 138.457 49.3019 138.407C49.7908 138.309 50.3064 138.203 50.7574 138.096C98.6457 126.688 152.6 122.432 203.603 118.409C209.605 117.935 215.579 117.464 221.485 116.986ZM534.642 111.697C533.257 111.347 531.63 111.037 529.803 110.766C589.111 111.392 649.256 112.313 708.775 115.786C705.912 116.844 703.063 117.919 700.231 119.012C644.911 118.954 589.723 119.671 534.623 121.544C535.557 121.243 536.382 120.935 537.094 120.62C538.184 120.137 539.295 119.512 540.058 118.678C540.919 117.74 541.354 116.484 540.708 115.176C540.153 114.053 538.997 113.325 538.063 112.874C537.072 112.394 535.888 112.013 534.642 111.697ZM576.745 106.06C624.843 106.814 673.35 108.148 721.45 111.248C724.689 110.123 727.944 109.019 731.211 107.935C726.89 107.327 722.597 106.527 718.966 105.448C714.855 104.227 710.602 102.368 708.949 99.3397C707.994 97.5867 708.037 95.8254 708.815 94.1784C689.52 96.847 663.402 99.3593 646.911 100.779C623.583 102.788 600.182 104.566 576.745 106.06ZM803.914 87.051C819.341 83.1747 834.873 79.6324 850.496 76.4C826.05 76.3133 801.604 76.1612 777.158 75.8999C770.187 77.3054 763.52 78.7431 757.305 80.203C756.683 81.3495 755.572 82.3594 754.199 83.2106C752.055 84.5391 748.908 85.7117 745.608 86.7259C742.23 87.7639 738.384 88.728 734.622 89.5743C728.814 90.8818 723.081 91.9375 719.365 92.5737C717.431 93.7228 716.299 94.7202 715.746 95.5272C715.224 96.2883 715.235 96.8226 715.517 97.3401C715.989 98.2055 717.722 99.3754 721.585 100.523C725.228 101.605 729.923 102.421 734.866 103.036C737.861 103.409 740.837 103.697 743.629 103.925C763.511 97.678 783.758 92.1154 803.914 87.051ZM1043.47 40.2707C1040.8 40.538 1038.15 40.7701 1035.74 40.9662C1032.3 41.0977 1028.86 41.2367 1025.42 41.3839C1025.92 40.959 1026.36 40.5147 1026.74 40.0501C1028.29 38.1577 1028.73 35.8898 1027.19 33.6252C1025.96 31.8273 1023.65 30.3162 1020.62 28.9888C1026.68 29.7437 1032.72 30.572 1038.73 31.4889C1043.05 32.1494 1050.89 34.0103 1056.52 36.0495C1058.28 36.6856 1059.61 37.2654 1060.53 37.7459C1059.06 38.1332 1057.03 38.5312 1054.54 38.917C1051.2 39.4334 1047.33 39.8863 1043.47 40.2707ZM1016.61 40.0082C1015.2 40.688 1013.55 41.3591 1011.71 42.0135C994.71 42.8494 977.727 43.8924 960.779 45.1827C954.394 45.5129 948.836 45.7989 944.888 46.0021L944.808 46.0063C941.664 46.1679 939.558 46.2764 938.884 46.3119C913.632 47.6399 888.403 49.0825 863.184 50.5245C808.923 53.6273 754.702 56.7275 700.399 58.6782C688.283 56.7542 676.073 55.1175 663.802 53.725C666.757 53.6848 669.721 53.6263 672.683 53.5318C673.697 53.4995 675.102 53.5853 676.898 53.7164L677.459 53.7577C679.009 53.8724 680.763 54.002 682.373 54.0331C684.073 54.0658 686.22 54.0135 688.004 53.4381C688.974 53.1258 690.035 52.596 690.773 51.7065C691.527 50.7964 691.711 49.7891 691.569 48.8501C691.347 47.3895 689.957 46.516 689.193 46.1139C688.3 45.6426 687.21 45.2687 686.118 44.9598C683.905 44.3325 680.941 43.7677 677.6 43.2531C670.877 42.2166 662.031 41.2934 653.209 40.517C644.363 39.7385 635.453 39.1 628.569 38.6393C624.678 38.3789 621.496 38.1789 619.314 38.042C617.578 37.9328 616.474 37.8636 616.158 37.8357C599.903 36.4024 583.594 35.0155 567.249 33.7285C621.791 27.6119 676.787 23.9597 732.024 21.6034C791.909 19.0489 852.146 17.5487 911.927 20.3198C917.374 20.6694 922.825 21.0088 928.279 21.3485C941.09 22.1463 953.917 22.9451 966.696 23.8751C971.349 24.2609 976.06 24.7103 980.746 25.2696C993.67 26.8125 1006.06 29.1575 1016.07 33.1588C1019.22 34.4177 1020.46 35.4382 1020.87 36.0368C1021.12 36.4 1021.17 36.7035 1020.69 37.2907C1020.08 38.0282 1018.78 38.9606 1016.61 40.0082ZM863.858 55.8015L867.725 55.5803C849.683 58.0912 829.409 61.1145 809.578 64.4775C801.72 65.8101 793.916 67.1981 786.337 68.6315C778.799 69.2282 771.257 69.8331 763.716 70.4444L761.723 70.4193C757.603 70.3672 753.485 70.3126 749.367 70.255C745.381 68.522 740.341 66.9758 735.306 65.6498C731.679 64.695 727.928 63.8225 724.363 63.054C770.903 61.1166 817.407 58.4575 863.858 55.8015ZM928.281 53.3194C922.776 53.8517 886.486 58.0452 845.213 64.227C890.46 60.8831 935.754 57.1383 979.62 49.6513L979.821 49.6174C980.032 49.5819 980.348 49.5282 980.76 49.4575C974.003 49.8105 967.335 50.1564 961.38 50.4643C950.328 51.3066 939.293 52.2545 928.281 53.3194ZM703.931 64.6742C705.146 64.8683 718.046 66.9276 730.266 69.9623C690.709 69.2989 651.157 68.242 611.746 66.1341C635.963 65.8468 660.152 65.2849 684.25 64.5277C689.439 64.3647 694.631 64.1899 699.82 64.0048C701.16 64.2196 702.503 64.438 703.841 64.66L703.931 64.6742ZM668.856 59.6804C625.295 60.8933 581.525 61.4134 537.905 60.775C534.035 60.4112 530.167 60.0332 526.302 59.6403C504.943 57.4686 482.684 55.1899 460.807 51.8853C507.96 52.9718 555.131 53.772 602.316 53.9248C624.621 55.1964 646.861 57.0305 668.856 59.6804ZM434.279 55.0606C435.342 54.5933 436.77 54.0905 438.534 53.5613C450.744 55.8577 463.16 57.7306 475.54 59.3424C471.053 59.211 465.97 59.0145 460.826 58.7188C453.318 58.2871 445.928 57.6539 440.387 56.7385C437.593 56.277 435.465 55.7748 434.071 55.2643C434.023 55.2477 433.981 55.2314 433.938 55.2155C434.045 55.1659 434.158 55.1143 434.279 55.0606ZM652.911 48.5239C636.138 48.6509 619.37 48.6795 602.607 48.6261C581.301 47.4153 559.977 46.7156 538.801 46.3063C518.13 45.9067 497.348 45.7623 476.511 45.9355C491.75 43.5029 506 41.6227 510.872 40.9797C511.782 40.8597 512.369 40.7823 512.57 40.7532C521.676 39.4261 530.798 38.1794 539.935 37.008C565.119 38.794 590.267 40.8894 615.328 43.0989C615.725 43.134 617.063 43.2185 619.082 43.3456C621.318 43.4868 624.387 43.6804 627.935 43.9178C634.788 44.3764 643.625 45.0101 652.379 45.7804C660.669 46.51 668.804 47.3554 675.087 48.2804C674.149 48.2338 673.222 48.2101 672.383 48.2368C666.511 48.4242 660.629 48.4673 654.681 48.5108L652.911 48.5239ZM372.313 26.5145C428.071 25.3127 484.046 27.7359 539.673 31.6648C603.191 23.5565 667.303 19.056 731.62 16.3123C759.106 15.1398 786.72 14.1863 814.37 13.7663C696.411 6.39949 577.915 2.04999 459.952 8.29044L457.699 8.40936C447.581 8.94312 437.059 9.49815 426.546 10.3318C429.917 10.3916 433.288 10.4549 436.659 10.5217C443.966 10.6666 449.474 10.8191 453.337 10.9764C455.266 11.055 456.815 11.1359 457.987 11.2199C459.023 11.2943 460.108 11.391 460.859 11.5682C461.041 11.6108 461.512 11.7256 461.996 11.9758C462.316 12.1403 464.063 13.141 463.46 14.8795C463.221 15.5665 462.692 15.9984 462.382 16.2084C462.058 16.4275 461.746 16.5599 461.562 16.6307C461.195 16.772 460.852 16.8488 460.666 16.8877C459.945 17.0368 458.919 17.1315 457.89 17.2069C455.666 17.3707 452.15 17.5254 447.571 17.6713C432.86 18.14 406.447 18.5375 373.992 18.7505C371.191 19.8282 370.025 20.8417 369.609 21.5557C369.134 22.3694 369.24 23.5709 371.127 25.451C371.481 25.8026 371.878 26.1577 372.313 26.5145ZM715.989 119.049C718.228 118.239 720.476 117.439 722.732 116.649C734.648 117.429 746.537 118.318 758.385 119.336C754.144 119.297 749.903 119.26 745.662 119.225C735.767 119.144 725.876 119.085 715.989 119.049ZM745.587 124.524C768.867 124.715 792.139 124.971 815.398 125.343C830.466 127.25 845.433 129.418 860.274 131.888C860.583 131.94 861.078 132.017 861.721 132.117C866.111 132.803 877.498 134.583 885.422 136.82C887.677 137.457 889.472 138.083 890.682 138.663C890.784 138.713 890.881 138.761 890.968 138.806C889.682 139.33 887.417 139.958 883.751 140.614C849.222 146.793 812.065 147.651 775.576 148.493C765.283 148.731 755.045 148.967 744.932 149.322C715.98 150.336 687.009 151.269 658.029 152.101C657.854 151.945 657.7 151.792 657.568 151.643C656.461 150.39 656.438 148.896 658.237 146.694C660.09 144.42 663.525 141.932 667.877 139.435C672.173 136.972 677.104 134.645 681.681 132.653C688.324 129.76 695.089 126.983 701.954 124.314C716.486 124.333 731.029 124.406 745.587 124.524ZM652.18 143.935C650.112 146.469 648.984 149.411 650.209 152.323C539.134 155.439 427.898 157.027 316.854 155.878C298.857 155.692 269.709 155.102 251.054 154.148C251.054 154.148 251.005 154.145 250.896 154.139L250.745 154.13C250.619 154.123 250.459 154.114 250.267 154.102C250.149 154.095 250.017 154.087 249.875 154.079C249.13 154.034 248.073 153.97 246.799 153.887C244.248 153.723 240.835 153.488 237.301 153.205C234.399 152.973 231.443 152.71 228.833 152.429C231.222 151.952 233.632 151.548 235.276 151.277C251.527 148.598 286.89 144.402 301.535 142.824C304.24 142.533 306.946 142.245 309.651 141.962C326.163 140.915 342.662 139.8 359.137 138.686C370.644 137.908 382.141 137.131 393.625 136.378C401.308 135.875 409.088 135.415 416.929 134.951C443.427 133.384 470.618 131.775 497.069 128.313C560.211 125.534 623.488 124.392 686.967 124.313C683.993 125.544 681.04 126.797 678.109 128.073C673.402 130.123 668.189 132.576 663.561 135.231C658.991 137.851 654.724 140.818 652.18 143.935ZM308.859 136.693C371.266 130.164 433.718 125.799 496.275 123.039C506.132 121.74 515.87 120.178 525.43 118.255C528.363 117.665 530.501 117.111 531.983 116.623C530.115 116.182 527.458 115.771 524.047 115.435C480.632 111.156 434.647 112.595 390.54 113.975L386.363 114.105C307.346 116.567 229.359 124.114 151.871 135.853C139.086 137.79 126.244 139.757 113.381 141.783C150.177 142.741 187.158 142.468 223.821 141.123C252.175 140.083 280.517 138.49 308.859 136.693ZM250.868 223.192C269.69 219.638 288.604 216.495 307.483 213.711C309.961 213.958 312.374 214.189 314.658 214.401C313.946 214.663 313.237 214.926 312.535 215.189C292.023 217.98 271.46 220.65 250.868 223.192ZM314.814 220.266C323.821 219.04 332.818 217.79 341.806 216.518C356.34 217.481 370.893 218.217 385.453 218.781C384.937 218.97 384.431 219.159 383.94 219.348C381.32 220.353 379.219 221.344 377.623 222.346C377.512 222.416 377.401 222.487 377.29 222.558C370.538 223.266 363.782 223.953 357.03 224.639C350.638 225.289 344.248 225.939 337.872 226.605C322.256 228.236 306.637 229.806 291.013 231.272C297.937 227.292 305.977 223.632 314.814 220.266ZM399.223 220.157C400.171 219.888 401.14 219.622 402.128 219.355C403.178 219.385 404.225 219.417 405.272 219.447C403.258 219.687 401.242 219.924 399.223 220.157ZM422.109 214.562C427.745 214.682 433.383 214.785 439.021 214.868C449.47 213.25 459.829 211.425 470.062 209.312C472.951 208.717 484.012 206.153 490.554 203.473C491.44 203.109 492.178 202.77 492.766 202.463L488.015 202.698C476.902 204.429 462.748 206.724 448.247 209.381C439.409 211.001 430.501 212.743 422.109 214.562ZM380.788 227.543C400.452 225.466 420.189 223.176 439.669 220.178C464.025 220.537 488.376 220.593 512.678 220.593C578.374 220.593 644.221 220.221 709.926 217.599C715.706 217.369 721.285 217.133 726.724 216.882C724.535 218.24 722.455 219.763 720.838 221.411C718.715 223.577 717.115 226.252 717.661 229.205C718.249 232.383 720.845 234.844 723.906 236.694C722.767 236.731 721.63 236.768 720.49 236.805C647.691 239.21 554.93 242.059 479.901 240.662C447.061 240.049 424.707 239.634 395.875 232.5C394.989 232.281 394.074 232.067 393.126 231.846C391.533 231.475 389.852 231.083 388.093 230.612C385.315 229.87 383.022 229.098 381.637 228.308C381.051 227.974 380.812 227.739 380.729 227.635C380.743 227.61 380.762 227.58 380.788 227.543ZM709.547 212.308C719.696 211.902 729.207 211.479 738.445 210.997C739.769 210.434 740.923 209.966 741.79 209.612C742.341 209.39 742.778 209.211 743.071 209.086C768.912 198.016 797.11 189.206 825.93 181.774C824.549 181.923 823.301 182.053 822.223 182.165C821.488 182.242 820.83 182.311 820.268 182.371C772.29 187.48 723.76 190.19 675.567 192.879L675.511 192.883C671.362 193.114 667.215 193.346 663.071 193.579C609.158 196.608 555.214 199.373 501.265 202.042C501.194 203.627 499.851 204.851 498.891 205.551C497.579 206.508 495.797 207.369 493.963 208.119C486.648 211.119 474.899 213.813 471.951 214.421C470.713 214.677 469.472 214.928 468.23 215.175C483.041 215.272 497.858 215.294 512.678 215.294C578.355 215.294 644.043 214.921 709.547 212.308ZM733.119 219.86C735.63 218.449 738.261 217.21 740.575 216.198C750.743 215.659 760.615 215.046 770.681 214.308C768.272 215.062 765.886 215.862 763.532 216.717C760.071 217.972 756.872 219.222 754.345 220.45C751.998 221.591 749.551 223.022 748.464 224.794C747.84 225.81 747.606 227.034 748.225 228.287C748.802 229.458 749.958 230.308 751.159 230.924C753.49 232.12 757.118 233.011 761.856 233.751C765.6 234.337 769.411 234.795 773.279 235.141L767.21 235.328C757.305 235.634 747.412 235.94 737.54 236.254C734.046 235.245 730.831 234.035 728.486 232.643C726.133 231.249 724.942 229.859 724.687 228.479C724.493 227.437 724.992 226.142 726.559 224.545C728.11 222.961 730.443 221.365 733.119 219.86ZM802.618 206.249L802.692 206.242C825.28 201.35 848.562 197.294 872.273 194.01C873.065 193.655 873.77 193.305 874.387 192.96C876.427 191.823 876.959 191.051 877.053 190.701C877.089 190.57 877.212 190.047 875.73 188.947C874.205 187.814 871.429 186.438 866.898 184.846C862.496 183.299 857.844 181.94 853.005 180.748C819.23 188.555 785.827 197.847 755.433 210.024C770.697 209.065 785.836 207.869 802.618 206.249ZM804.143 211.446C802.148 211.879 800.162 212.319 798.179 212.764C787.295 215.214 776.609 217.866 766.629 221.485C763.232 222.717 760.357 223.851 758.213 224.893C756.631 225.662 755.747 226.241 755.293 226.616C756.442 227.169 758.868 227.87 763.31 228.564C781.943 231.479 802.701 231.076 823.75 229.515C834.258 228.734 844.775 227.672 855.094 226.607L857.851 226.322C867.191 225.356 876.37 224.407 885.117 223.701C929.924 220.083 974.701 216.288 1019.41 212.124C1019.24 211.976 1019.05 211.822 1018.85 211.665C1014.43 208.183 1006.26 204.772 995.497 201.553C963.595 205.459 931.364 209.236 899.024 210.941C894.445 211.183 890.904 211.267 888.245 211.216C885.755 211.167 883.552 210.997 882.018 210.503C881.276 210.262 879.867 209.686 879.313 208.414C878.713 207.037 879.552 205.92 880.075 205.402C880.621 204.86 881.325 204.441 881.914 204.134C882.543 203.805 883.261 203.493 884.008 203.198C889.725 200.945 901.171 198.25 905.894 197.179C911.272 195.956 916.672 194.769 922.085 193.618C906.176 195.105 890.377 196.912 874.77 199.055C872.966 199.813 870.954 200.548 868.798 201.265C859.789 204.267 847.664 206.404 835.839 207.996C825.187 209.428 814.54 210.45 806.28 211.241L804.143 211.446ZM885.878 228.97C930.686 225.352 975.481 221.556 1020.22 217.39C1019.94 217.689 1019.61 218.003 1019.2 218.334C1017.08 220.042 1013.59 221.747 1009.05 223.404C955.796 228.008 901.972 230.663 848.246 232.656C850.87 232.392 853.477 232.124 856.064 231.857L858.81 231.573C868.174 230.605 877.243 229.666 885.878 228.97ZM1024.4 221.932C1024.36 221.966 1024.32 221.999 1024.28 222.033C1056.41 219.016 1088.31 215.244 1119.84 210.428C1120.94 210.261 1122.54 210.047 1124.53 209.784C1130.32 209.015 1139.35 207.817 1148.51 206.051C1154.63 204.871 1160.61 203.472 1165.49 201.843C1166.39 201.539 1167.24 201.235 1168.03 200.929C1140.6 205.758 1112.31 208.49 1084.7 211.156C1079.2 211.688 1073.73 212.216 1068.3 212.757C1054.94 214.09 1041.58 215.382 1028.21 216.641C1027.72 218.652 1026.27 220.422 1024.4 221.932ZM1083.84 205.894C1112.27 203.147 1140.96 200.371 1168.6 195.382C1158.98 193.165 1141.44 191.459 1132.08 190.876C1120.82 190.176 1109.43 189.602 1097.95 189.164C1083.2 190.957 1068.45 192.729 1053.7 194.497C1042.95 195.787 1032.2 197.078 1021.47 198.375C1017.07 198.907 1012.66 199.445 1008.25 199.988C1014.85 202.443 1020.31 205.114 1024 208.019C1025.36 209.089 1026.44 210.216 1027.2 211.395C1040.59 210.133 1053.98 208.838 1067.36 207.505C1072.84 206.957 1078.33 206.427 1083.84 205.894ZM1166.91 175.138C1143.83 178.155 1120.7 181.027 1097.56 183.843C1070.08 182.808 1042.05 182.538 1013.89 183.135C1031.36 180.801 1048.92 178.867 1066.52 177.365C1099.35 174.562 1133.74 172.786 1166.91 175.138ZM883.744 192.487C898.33 190.628 913.057 189.056 927.868 187.752C905.209 184.348 884.11 181.963 871.812 180.739C875.68 182.197 878.675 183.661 880.732 185.189C883.16 186.993 884.682 189.219 884.008 191.74C883.94 191.994 883.85 192.243 883.744 192.487ZM907.956 202.249C923.75 198.665 939.697 195.372 955.763 192.399C964.8 194.073 973.597 195.896 981.701 197.857C954.025 201.179 926.319 204.189 898.526 205.655C896.668 205.752 895.015 205.823 893.549 205.867C898.625 204.42 904.622 203.005 907.956 202.249ZM996.279 196.085C994.107 195.458 991.873 194.845 989.589 194.25C983.883 192.759 977.774 191.346 971.438 190.012C1001.42 188.415 1031.5 187.862 1061.18 188.231L1052.56 189.266C1041.82 190.556 1031.08 191.846 1020.33 193.142C1014.47 193.853 1008.6 194.573 1002.73 195.294L996.279 196.085ZM860.536 170.659C857.435 171.721 852.761 172.706 847.513 173.581C846.582 173.526 845.652 173.473 844.723 173.42C831.27 170.814 816.935 169.232 802.85 168.246C806.616 168.193 810.341 168.149 814.017 168.122C822.034 168.064 830.05 167.989 838.066 167.896C843.504 168.381 848.894 168.98 854.222 169.718C854.357 169.736 854.586 169.762 854.884 169.796C856.092 169.934 858.449 170.202 860.536 170.659ZM483.949 186.316C573.107 175.156 660.454 170.593 750.622 171.775C667.35 173.392 584.752 182.633 503.036 194.994L500.988 195.305C498.655 195.656 495.858 196.078 492.688 196.562C491.081 196.278 489.22 196.036 487.105 195.831C466.977 193.888 446.04 193.969 425.113 195.142C424.825 194.858 424.504 194.619 424.182 194.42C445.463 191.118 464.989 188.682 479.802 186.834C481.228 186.655 482.613 186.482 483.949 186.316ZM424.983 200.463C428.286 200.274 431.586 200.113 434.879 199.983L424.983 200.463ZM344.324 210.766C348.075 210.232 351.825 209.693 355.574 209.153L349.151 209.467C347.532 209.893 345.922 210.326 344.324 210.766ZM380.67 196.67C373.136 198.193 365.588 199.839 358.144 201.62C353.465 202.194 348.837 202.772 344.267 203.343L342.513 203.562C338.643 204.046 334.768 204.542 330.889 205.054L326.561 205.268C315.627 205.809 304.694 206.342 293.765 206.863C287.592 206.125 281.874 205.339 277.69 204.567C277.146 204.468 276.567 204.365 275.969 204.259C273.399 203.804 270.458 203.281 268.111 202.567C267.144 202.274 266.503 202.009 266.108 201.807C267.364 200.456 269.673 199.557 273.267 198.898C275.191 198.545 277.269 198.295 279.472 198.043L279.966 197.986C281.966 197.758 284.084 197.518 286.042 197.186C292.682 196.057 301.157 194.844 310.065 193.669C314.854 193.625 319.648 193.596 324.44 193.586C330.279 193.573 336.395 193.453 342.7 193.33C352.281 193.142 362.307 192.944 372.484 193.1C379.784 193.211 386.996 193.506 393.925 194.109C389.519 194.923 385.093 195.776 380.67 196.67ZM265.437 207.476C266.139 207.69 266.881 207.89 267.643 208.075C201.093 211.075 134.606 213.336 67.9376 213.216C77.4818 211.912 86.9108 210.389 96.0765 208.909C98.1819 208.57 100.274 208.231 102.349 207.899C113.32 206.143 124.259 204.272 135.159 202.286C179.42 198.384 223.843 195.732 268.397 194.457C264.929 195.388 261.544 196.919 259.525 199.707C258.903 200.567 258.579 201.557 258.787 202.602C258.988 203.623 259.643 204.441 260.369 205.054C261.726 206.199 263.721 206.955 265.437 207.476ZM309.4 188.374C266.085 188.781 222.888 190.514 179.841 193.459C185.978 192.15 192.1 190.803 198.206 189.422C202.589 188.429 207.061 187.44 211.589 186.438C237.055 180.806 264.307 174.778 287.706 165.498C289.143 164.928 290.791 163.82 291.852 162.752C292.287 162.315 292.885 161.63 293.164 160.804C301.838 160.983 310.072 161.108 316.757 161.177C429.596 162.345 542.609 160.69 655.407 157.48C658.679 159.333 663.305 160.83 669.227 162.047L669.359 162.074C619.732 162.851 570.197 164.58 520.621 168.14C464.316 172.182 408.026 177.273 352.056 183.297C341.499 184.435 324.887 186.337 309.4 188.374ZM671.473 157.012C682.144 159.189 693.224 160.675 704.545 161.671C710.387 161.627 716.228 161.593 722.072 161.569C731.847 161.527 741.861 161.345 752.01 161.162C780.515 160.646 810.079 160.111 838.4 162.592C866.283 162.266 894.157 161.723 922.012 160.905C974.956 150.813 1028.8 142.616 1083.04 136.607C1066.31 135.378 1049.5 134.442 1032.76 133.511C1024.7 133.063 1016.66 132.615 1008.65 132.136C958.68 129.147 908.641 127.324 858.543 126.176C859.636 126.354 860.725 126.534 861.815 126.715C862.056 126.755 862.468 126.819 863.026 126.906C867.181 127.552 879.377 129.447 887.928 131.862C890.37 132.551 892.694 133.331 894.514 134.204C895.424 134.641 896.322 135.155 897.055 135.761C897.781 136.36 898.514 137.187 898.745 138.239C899.284 140.683 896.937 142.318 894.911 143.226C892.746 144.196 889.571 145.022 885.403 145.768C850.094 152.087 811.951 152.964 775.357 153.805C765.177 154.039 755.111 154.271 745.265 154.616C720.682 155.477 696.082 156.28 671.473 157.012ZM869.656 169.968C869.456 168.797 868.562 167.98 867.782 167.467C875.559 167.331 883.335 167.178 891.112 167.004C883.93 168.467 876.706 169.974 869.465 171.539C869.668 171.067 869.756 170.541 869.656 169.968ZM1029.3 156.271C1005.83 157.636 982.346 158.754 958.838 159.658C1009.1 150.947 1060.06 143.987 1111.29 139.024C1122.93 140.185 1134.48 141.571 1145.88 143.281C1149.61 143.841 1152.29 144.375 1154.14 144.864L1153.99 144.906C1147.7 146.64 1136.07 147.955 1131.33 148.479C1097.63 152.209 1063.4 154.288 1029.3 156.271ZM521.3 173.415C561.781 170.508 602.257 168.826 642.821 167.888C589.466 170.032 536.448 174.371 482.778 181.089C481.431 181.257 480.036 181.432 478.594 181.61C461.245 183.774 437.243 186.768 411.471 191.038C399.291 188.798 385.878 188.003 372.628 187.802C368.562 187.74 364.46 187.735 360.38 187.761C413.832 182.089 467.561 177.273 521.3 173.415ZM403.896 206.798C397.49 208.172 391.025 209.314 386.916 209.932C380.673 210.87 374.424 211.799 368.169 212.716C379.117 213.253 390.074 213.679 401.043 214.016C413.416 210.736 428.326 207.63 442.95 204.901C433.111 205.379 423.272 205.858 413.431 206.335L403.896 206.798ZM662.539 188.293C622.597 190.538 582.641 192.637 542.675 194.66C633.1 182.223 724.297 174.49 816.102 177.457C769.404 182.327 722.176 184.963 675.005 187.597C670.856 187.828 666.686 188.062 662.539 188.293ZM767.489 240.625C772.773 240.462 778.063 240.298 783.359 240.133C778.465 240.731 773.581 241.361 768.704 242.024C766.066 241.653 763.433 241.255 760.811 240.831L767.489 240.625ZM736.41 241.594C742.062 243.117 747.776 244.073 750.977 244.596C719.691 249.419 688.827 255.731 658.695 263.972C657.842 264.205 656.625 264.514 655.121 264.897C652.599 265.539 649.27 266.387 645.528 267.417C639.23 267.846 632.921 268.27 626.599 268.683C624.616 268.348 622.817 268.037 621.224 267.682C599.73 262.903 564.606 257.64 543.755 255.068C469.294 245.885 393.679 242.504 318.516 240.374C305.419 240.003 292.318 239.672 279.21 239.386C279.909 238.771 280.68 238.139 281.524 237.489C300.658 235.751 319.764 233.848 338.856 231.854C345.172 231.193 351.52 230.548 357.891 229.901C363.132 229.368 368.406 228.833 373.67 228.289C373.758 228.81 373.956 229.318 374.254 229.806C374.971 230.968 376.167 231.855 377.339 232.523C379.656 233.844 382.847 234.839 385.703 235.602C387.561 236.099 389.571 236.569 391.277 236.968C392.169 237.176 392.984 237.369 393.646 237.531C423.48 244.912 446.709 245.345 479.287 245.953L479.727 245.96C555.041 247.362 648.046 244.502 720.805 242.1C725.999 241.928 731.199 241.76 736.41 241.594ZM768.697 247.414C736.833 251.791 705.403 257.624 674.716 265.376C725.202 261.76 776.361 257.543 827.119 252.129C807.561 251.38 787.943 250.056 768.697 247.414ZM542.599 260.297C558.578 262.267 582.891 265.818 602.851 269.487C557.164 270.777 511.527 272.849 465.94 275.488C440.697 275.732 415.546 275.465 390.601 274.52C390.561 274.518 390.504 274.517 390.434 274.515C390.337 274.511 390.214 274.508 390.062 274.502C384.748 274.333 345.941 273.091 314.081 267.464C305.746 265.993 297.982 264.237 291.472 262.152C284.912 260.052 279.893 257.704 276.784 255.149C273.787 252.687 272.647 250.127 273.42 247.233C273.64 246.41 274.021 245.529 274.595 244.589C289.15 244.894 303.703 245.257 318.249 245.67C393.339 247.797 468.592 251.171 542.599 260.297ZM466.268 280.784C447.744 281.857 429.224 283.024 410.712 284.27C436.711 284.522 462.701 285.381 488.457 287.065C516.267 283.33 544.186 280.057 572.206 277.244C536.971 279.106 501.546 280.44 466.268 280.784ZM254.957 336.939C276.002 330.996 307.296 323.787 330.43 318.996C356.995 316.936 383.524 314.733 410.012 312.498C410.632 312.445 412.423 312.313 415.215 312.104C431.595 310.887 482.244 307.121 531.808 302.195C540.907 301.291 549.982 300.348 558.814 299.371C565.086 300.227 571.327 301.148 577.539 302.135C582.416 302.913 587.095 303.833 590.955 304.879C594.946 305.96 597.588 307.052 598.839 308.004C599.12 308.218 599.276 308.384 599.357 308.495C599.397 308.55 599.416 308.587 599.428 308.61C599.437 308.633 599.44 308.647 599.44 308.647C599.437 308.656 599.425 308.702 599.418 308.718C599.387 308.788 599.302 308.938 599.068 309.168C597.986 310.228 594.972 311.832 588.414 313.765C554.074 323.889 515.86 328.615 479.029 333.171L476.474 333.485C439.643 338.045 402.525 342.042 365.295 344.963C344.782 345.653 324.398 346.895 303.935 348.713C292.812 349.185 281.69 349.536 270.572 349.752C267.775 349.807 264.376 349.937 260.666 350.08C252.809 350.382 243.568 350.738 235.746 350.533C229.882 350.379 225.625 349.913 223.533 349.167C223.373 349.111 223.247 349.059 223.149 349.017C223.266 348.858 223.469 348.628 223.819 348.317C223.984 348.171 224.499 347.823 225.566 347.287C226.57 346.784 227.861 346.215 229.373 345.599C232.396 344.369 236.122 343.03 239.823 341.769C247.232 339.248 254.31 337.123 254.957 336.939ZM530.872 296.942C532.387 296.791 533.898 296.641 535.408 296.488C519.997 294.786 504.437 293.442 488.783 292.405C451.779 297.389 414.962 303.193 378.344 309.815C388.637 308.963 398.93 308.099 409.218 307.232C409.882 307.175 411.764 307.036 414.676 306.819C431.317 305.582 481.554 301.842 530.872 296.942ZM593.373 299.897C589.161 298.756 584.232 297.79 579.265 296.993C587.601 295.966 595.518 294.917 602.792 293.85C602.858 294.163 602.943 294.475 603.047 294.792C603.938 297.482 606.182 300.028 609.64 302.444C619.184 309.108 631.904 313.816 644.956 317.344C658.034 320.879 671.716 323.299 683.312 325.276C685.931 325.723 688.553 326.156 691.182 326.574C677.508 329.56 663.974 332.764 650.611 336.199C650.4 336.252 650.109 336.324 649.741 336.412C649.445 336.485 649.1 336.566 648.708 336.66C647.275 337.002 645.24 337.49 642.805 338.101C642.344 338.073 641.883 338.045 641.422 338.016C591.357 334.996 535.368 336.225 527.163 336.638C495.007 338.266 462.999 340.958 431.158 344.472L428.047 344.45C444.633 342.68 461.167 340.753 477.632 338.714L480.497 338.361C517.099 333.835 555.963 329.03 591.014 318.695C597.69 316.727 602.347 314.69 604.704 312.383C605.974 311.141 606.725 309.672 606.489 308.064C606.257 306.508 605.16 305.25 603.896 304.289C601.463 302.439 597.525 301.021 593.373 299.897ZM558.93 294C575.175 292.195 590.506 290.289 603.546 288.335C603.754 287.911 603.993 287.494 604.257 287.084C606.326 283.906 610.163 281.108 614.668 278.679C581.154 281.482 547.784 284.948 514.562 289.07C529.472 290.393 544.276 292.022 558.93 294ZM609.931 293.516C609.851 293.274 609.791 293.034 609.756 292.792C609.95 292.762 610.144 292.73 610.337 292.7C610.571 292.663 610.803 292.626 611.035 292.589C621.718 290.879 630.729 289.109 637.058 287.303C640.193 286.407 642.897 285.439 644.84 284.367C646.594 283.401 648.826 281.728 648.448 279.361C648.256 278.152 647.769 277.098 647.074 276.174C662.424 275.087 677.801 274.138 693.208 273.326C736.525 273.176 779.876 273.861 823.261 275.569C869.711 277.398 918.464 279.855 964.869 287.103C903.237 287.964 841.393 293.564 785.179 308.624C782.782 309.267 780.633 309.924 778.825 310.603C754.279 314.258 729.994 318.51 706.103 323.414C698.999 322.407 691.926 321.31 684.891 320.11C673.291 318.132 659.993 315.772 647.367 312.36C634.717 308.94 623.018 304.533 614.484 298.572C611.692 296.622 610.397 294.924 609.931 293.516ZM637.984 276.834C636.044 276.979 634.105 277.126 632.164 277.274C629.455 278.233 626.791 279.262 624.28 280.352C619.415 282.463 615.503 284.658 612.962 286.847C621.992 285.337 629.358 283.826 634.526 282.351C637.455 281.516 639.455 280.751 640.63 280.104C640.987 279.906 641.204 279.756 641.33 279.657C641.017 278.61 639.999 277.684 637.984 276.834ZM823.634 270.277C813.906 269.893 804.178 269.561 794.453 269.279C889.519 266.535 985.842 267.141 1079.36 275.746C1081.63 275.955 1084.24 276.163 1087.08 276.389C1094.83 277.007 1104.35 277.767 1113.76 279.081C1120.15 279.975 1126.35 281.109 1131.72 282.592C1137.14 284.083 1141.48 285.862 1144.38 287.948C1146.07 289.172 1145.9 289.759 1145.86 289.875C1145.75 290.243 1145.19 290.921 1143.58 291.795C1141.94 292.689 1139.92 293.428 1138.03 294.027C1121.08 292.398 1107.19 291.562 1101.31 291.207C1100.73 291.172 1100.22 291.142 1099.8 291.115C1065.93 289.027 1030.51 287.356 994.691 287.036C939.34 275.587 879.427 272.473 823.634 270.277ZM834.726 303.338C885.791 294.512 940.059 291.886 993.696 292.331C994.263 292.447 994.828 292.567 995.393 292.688C942.004 293.998 888.004 297.381 834.726 303.338ZM781.207 315.651C858.302 304.229 938.035 298.735 1016.16 297.581C1018.56 298.206 1020.96 298.853 1023.34 299.517C1029.6 301.27 1034.99 303.33 1039.11 305.559C1041.64 306.928 1043.59 308.31 1044.98 309.657C996.615 315.04 947.725 318.354 898.883 319.95C894.571 320.091 890.223 320.246 885.852 320.404C852.676 321.601 818.086 322.848 786.489 317.598C783.418 317.088 781.375 316.584 780.118 316.141C780.267 316.067 780.43 315.989 780.614 315.908C780.798 315.823 780.997 315.738 781.207 315.651ZM899.192 325.244C948.787 323.624 998.457 320.239 1047.6 314.724C1047.57 315.918 1047.06 317.157 1045.94 318.469C1043.92 320.852 1039.82 323.546 1032.67 326.322C1022.04 330.452 1010.63 333.858 998.738 336.73C967.486 336.782 936.227 336.375 905.06 335.67C844.437 334.3 782.614 332.893 722.694 325.597C739.027 322.446 755.534 319.593 772.175 317.021C772.591 318.722 774.498 319.87 776.004 320.513C778.113 321.412 781.148 322.14 784.95 322.773C817.549 328.187 853.168 326.898 886.221 325.698C890.594 325.541 894.923 325.384 899.192 325.244ZM904.845 340.967C927.7 341.484 950.616 341.841 973.552 341.975C967.753 343.016 961.89 343.972 955.99 344.858C938.113 347.547 920.088 349.598 902.554 351.593C893.263 352.649 884.108 353.691 875.186 354.803C824.726 361.095 774.014 366.077 723.018 367.946C724.684 365.953 725.705 363.934 725.94 361.901C726.221 359.468 725.351 357.23 723.611 355.253C720.275 351.462 713.779 348.667 706.006 346.498C694.26 343.221 677.991 340.952 660.121 339.386C675.35 335.584 690.789 332.077 706.406 328.85C771.6 337.955 839.196 339.483 904.729 340.965L904.845 340.967ZM716.311 365.913C715.651 366.607 714.954 367.287 714.219 367.951C691.033 367.935 667.936 368.555 645.415 369.163C634.748 368.822 624.529 368.04 616.865 366.522C612.988 365.755 609.992 364.842 607.957 363.821C605.943 362.81 605.212 361.876 605.052 361.074C605 360.814 605.004 360.53 605.078 360.219C605.636 359.851 606.186 359.378 606.55 358.779C606.784 358.394 606.914 357.998 606.95 357.608C607.692 356.949 608.676 356.23 609.952 355.453C613.796 353.117 619.328 350.856 625.328 348.823C631.767 346.639 638.448 344.811 643.684 343.475C667.497 344.998 689.338 347.505 703.524 351.464C710.999 353.548 715.651 355.854 717.687 358.164C718.632 359.24 719.006 360.305 718.874 361.445C718.736 362.63 718.027 364.109 716.311 365.913ZM604.004 368.221C605.617 369.031 607.491 369.725 609.548 370.326C527.936 373.477 446.43 380.063 365.718 388.94C302.944 395.844 239.242 404.334 178.27 418.156C177.941 418.23 177.374 418.348 176.611 418.507C171.515 419.576 157.635 422.484 146.872 426.416C144.635 427.232 142.479 428.112 140.525 429.052C118.131 425.37 95.8531 421.371 73.7218 417.166C128.52 400.781 186.282 388.843 244.126 378.348C352.151 379.241 461.992 379.833 569.225 367.365C569.814 367.298 570.454 367.223 571.142 367.146C574.75 366.732 579.636 366.174 584.575 365.45C589.255 364.763 594.203 363.897 598.307 362.803C599.168 365.125 601.366 366.898 604.004 368.221ZM178.356 423.648C173.202 424.733 161.001 427.301 151.123 430.769C185.536 436.263 220.208 440.973 255.021 444.503C292.526 441.743 329.854 438.305 366.808 434.559C444.921 426.641 522.631 416.304 598.969 401.917C604.392 400.894 610.46 399.873 616.94 398.783C631.044 396.411 647.088 393.712 662.624 389.966C679.534 385.891 695.165 380.715 706.413 373.744C702.415 373.834 698.415 373.906 694.416 373.956C693.522 373.966 691.862 374.023 689.595 374.099C680.759 374.397 662.738 375.009 645.393 374.466L642.951 374.533C550.583 377.024 458.186 384.126 366.751 394.183C304.086 401.075 240.795 409.521 180.328 423.226C179.906 423.323 179.231 423.464 178.356 423.648ZM62.6975 420.528C86.2243 425.065 109.946 429.391 133.822 433.371C133.269 433.901 132.784 434.458 132.389 435.041C131.025 437.049 130.772 439.332 132.249 441.595C133.619 443.697 136.293 445.492 139.896 447.085C142.393 448.189 144.963 449.232 147.597 450.218C99.0008 451.673 50.4248 451.41 2.29196 448.626C2.59241 448.212 2.95949 447.773 3.40366 447.306C9.5211 440.883 19.8696 435.513 31.5041 430.93C41.3369 427.059 51.7491 423.876 60.791 421.111L60.8583 421.09C61.4782 420.901 62.0914 420.714 62.6975 420.528ZM143.508 442.524C149.731 445.276 156.473 447.637 163.596 449.675C184.114 448.905 204.626 447.843 225.102 446.552C197.264 443.224 169.56 439.215 142.053 434.728C140.305 435.753 139.233 436.673 138.714 437.438C138.235 438.145 138.231 438.671 138.624 439.273C139.123 440.038 140.446 441.169 143.508 442.524ZM1.98964 453.924C55.1812 456.991 108.871 456.999 162.473 455.024C168.451 456.69 174.643 458.135 180.969 459.402C158.864 462.697 136.799 466.339 114.762 470.316C98.9606 469.646 83.187 468.641 67.4492 467.251C66.9239 467.205 65.9759 467.141 64.6819 467.057C57.6339 466.588 40.3216 465.44 25.1624 462.569C16.0983 460.852 8.48858 458.634 4.30993 455.918C3.25866 455.235 2.50236 454.57 1.98964 453.924ZM182.394 454.199C187.472 455.222 192.665 456.13 197.934 456.945C216.03 454.397 234.156 452.088 252.319 450.025C229.073 451.71 205.749 453.131 182.394 454.199ZM141.267 471.13C160.113 467.949 178.981 465.018 197.879 462.345C201.54 462.898 205.221 463.403 208.906 463.871C225.522 465.979 242.442 467.322 258.279 468.511C219.219 470.775 180.174 471.886 141.267 471.13ZM263.532 463.575C267.522 463.873 271.446 464.166 275.288 464.465C275.595 464.304 275.912 464.145 276.238 463.988C285.155 459.706 295.668 456.554 306.854 454.152C298.382 453.606 289.916 452.98 281.46 452.281C260.269 454.38 239.13 456.823 218.035 459.596C233.448 461.331 248.939 462.485 263.532 463.575ZM277.42 472.63C283.356 472.233 289.29 471.812 295.221 471.371C432.829 481.809 572.516 480.832 710.214 474.552C775.295 471.586 840.733 467.843 905.44 461.126L905.507 461.119L905.7 461.103L906.348 461.047C906.58 461.027 906.847 461.004 907.147 460.978C907.542 460.944 907.994 460.905 908.495 460.859C910.261 460.7 912.648 460.473 915.369 460.176C920.783 459.586 927.615 458.708 933.503 457.524C936.439 456.934 939.255 456.245 941.581 455.441C941.704 455.399 941.827 455.357 941.95 455.312C1019.55 453.505 1097.46 450.776 1174.75 445.123C1174.11 445.321 1173.46 445.517 1172.8 445.711C1159.29 449.665 1143.31 452.184 1139.77 452.742C1139.55 452.777 1139.37 452.806 1139.25 452.825C1102.13 458.812 1063.93 462.073 1025.95 465.318C1022.55 465.608 1019.15 465.898 1015.76 466.189C837.062 481.555 657.518 487.031 477.566 487.584C469.774 487.609 461.933 487.666 454.054 487.724C402.681 488.1 349.825 488.487 300.677 479.652C300.609 479.64 300.519 479.624 300.41 479.605C298.273 479.227 289.141 477.619 282.463 475.128C280.725 474.48 279.271 473.812 278.193 473.153C277.891 472.968 277.635 472.793 277.42 472.63ZM644.084 436.896C643.254 436.984 642.424 437.071 641.594 437.159C634.45 438.199 627.093 439.362 619.028 440.733C616.377 441.183 613.484 441.434 610.749 441.66L610.07 441.715C607.512 441.925 605.08 442.125 602.792 442.443C598.033 443.107 595.005 444.151 593.463 445.965C594.125 446.186 595.215 446.437 596.818 446.663C598.898 446.958 601.324 447.149 603.78 447.324C603.938 447.334 604.099 447.347 604.26 447.357L604.806 447.396C606.846 447.538 608.903 447.683 610.527 447.88C631.075 450.377 647.613 451.17 669.014 451.899C733.587 454.099 798.467 452.857 863.243 451.615L863.352 451.613C868.512 451.514 873.675 451.415 878.833 451.318C899.228 450.935 919.65 450.525 940.085 450.053C940.541 449.848 940.855 449.673 941.068 449.536C940.342 448.981 938.647 448.119 935.26 447.054C912.915 440.028 885.8 439.143 860.56 438.318C857.387 438.215 854.243 438.113 851.144 437.998C782.316 435.474 713.037 435.596 644.084 436.896ZM586.818 443.989C587.156 443.49 587.534 443.029 587.946 442.602C577.589 443.625 567.232 444.637 556.883 445.647L549.488 446.37C548.746 446.624 547.902 446.87 546.98 447.112C540.687 448.762 534.162 449.421 527.798 449.797C524.914 449.967 522.196 450.074 519.532 450.18C516.045 450.32 512.645 450.456 509.087 450.721C504.988 451.027 500.993 451.32 497.064 451.606C481.833 453.184 466.545 454.811 451.214 456.441C411.293 460.688 371.065 464.97 330.702 468.493C456.538 476.298 583.915 475.003 709.784 469.263C773.813 466.343 838.033 462.679 901.507 456.181C894.003 456.332 886.505 456.475 879.013 456.616C873.805 456.715 868.595 456.814 863.382 456.915C798.654 458.155 733.53 459.402 668.69 457.194C647.211 456.462 630.346 455.657 609.39 453.111C608.026 452.945 606.257 452.821 604.191 452.677C603.993 452.662 603.785 452.648 603.579 452.632C603.423 452.622 603.267 452.611 603.108 452.599C600.666 452.426 597.938 452.215 595.501 451.871C593.203 451.546 590.556 451.028 588.676 449.995C587.664 449.437 586.624 448.592 586.206 447.38C585.78 446.149 586.147 444.973 586.818 443.989ZM687.274 426.171C670.397 427.996 656.792 429.586 642.542 431.624C640.587 431.661 638.635 431.698 636.682 431.739C582.485 432.824 528.137 434.502 473.977 437.811C433.959 437.609 394.251 438.742 354.782 441.111C359.115 440.682 363.441 440.249 367.763 439.811C446.063 431.873 524.042 421.503 600.704 407.056C605.813 406.094 611.694 405.102 618.056 404.032C632.297 401.635 648.961 398.829 664.799 395.012C684.86 390.177 704.541 383.525 717.186 373.451C718.838 373.398 720.491 373.343 722.143 373.283C752.617 373.505 782.985 374.959 812.27 379.118L812.332 379.127C814.975 379.501 829.977 381.632 841.449 385.098C844.319 385.965 846.872 386.887 848.912 387.85C851 388.83 852.302 389.738 852.955 390.502C853.517 391.157 853.544 391.602 853.307 392.079C852.986 392.726 851.981 393.789 849.305 395.167C832.712 403.709 811.783 409.238 789.796 413.252C784.349 413.739 778.914 414.282 773.494 414.888C769.652 415.317 766.787 415.684 764.742 416.002C763.721 416.161 762.863 416.313 762.168 416.463C761.553 416.594 760.792 416.78 760.156 417.06C759.924 417.161 759.279 417.454 758.785 418.02C750.996 419.048 743.305 419.974 735.859 420.871C730.724 421.489 725.703 422.093 720.845 422.708L719.831 422.835C708.964 423.887 698.111 424.998 687.274 426.171ZM314.398 449.301C338.097 447.361 361.874 445.859 385.739 444.819C381.143 445.245 376.252 445.654 371.162 446.078C358.72 447.119 345.111 448.255 331.835 449.975C331.393 450.034 330.948 450.092 330.504 450.15C325.133 449.901 319.764 449.617 314.398 449.301ZM390.095 449.746C384.313 450.315 378.16 450.829 371.772 451.362C395.826 451.645 419.887 451.161 443.917 449.783C462.424 448.721 478.656 447.621 496.206 446.343C505.809 445.351 515.395 444.375 524.966 443.432L528.829 443.05C528.363 443.042 527.895 443.033 527.418 443.026C516.442 442.849 503.407 442.95 492.173 443.036C485.27 443.091 479.046 443.139 474.398 443.114L474.242 443.112C446.113 444.835 418.05 446.997 390.095 449.746ZM287.176 465.419C299.71 460.665 314.965 457.63 330.92 455.478C353.338 456.505 375.793 456.932 398.249 456.657C363.985 460.179 329.617 463.472 295.228 466.044C292.545 465.839 289.859 465.631 287.176 465.419ZM551.453 439.788C551.85 439.968 552.386 440.256 552.845 440.697L555.994 440.39C562.032 439.8 568.072 439.21 574.109 438.616C566.232 438.864 558.358 439.13 550.486 439.424C550.821 439.528 551.148 439.65 551.453 439.788ZM34.0702 409.416C28.4418 408.304 21.4382 406.919 13.4727 405.29C31.3899 400.13 50.4024 394.862 61.3167 392.146C86.308 385.931 111.824 380.706 137.631 376.169C162.701 377.795 187.97 377.952 212.712 378.106L215.919 378.127C163.889 388.041 112.103 399.531 62.7857 414.769L62.1864 414.955C54.7996 413.526 47.4299 412.075 40.0785 410.607C38.3195 410.256 36.2796 409.853 34.0702 409.416ZM212.953 372.806C196.112 372.7 179.182 372.592 162.341 372.039C199.337 366.156 236.773 361.48 273.971 357.141C284.202 355.947 294.389 354.9 304.556 353.995C325.003 353.124 345.437 351.849 365.824 350.25C373.193 350.004 380.58 349.83 387.994 349.727C356.182 353.949 324.556 358.887 293.136 364.287C276.593 367.13 259.96 370.025 243.315 373.041L235.892 372.979C232.727 372.952 229.563 372.926 226.4 372.901C221.926 372.864 217.443 372.836 212.953 372.806ZM294.727 369.451C340.012 361.667 385.672 354.861 431.645 349.775C485.514 350.132 541.082 350.63 593.428 357.613C593.863 357.671 594.295 357.728 594.73 357.783C595.016 357.82 595.317 357.859 595.603 357.896C592.121 358.802 587.728 359.585 583.208 360.249C578.433 360.95 573.733 361.487 570.121 361.901C569.414 361.982 568.75 362.058 568.135 362.129C470.906 373.435 371.453 373.944 272.69 373.269C280.044 371.983 287.391 370.712 294.727 369.451ZM605.477 351.344C604.347 352.029 603.241 352.782 602.241 353.592C601.229 353.343 600.146 353.156 599.179 353.008C598.068 352.836 596.865 352.681 595.808 352.545C595.612 352.518 595.421 352.494 595.236 352.471C595.042 352.446 594.853 352.421 594.676 352.396C557.727 347.468 519.222 345.733 481.053 345.014C496.551 343.753 512.08 342.714 527.642 341.928C534.81 341.564 581.189 340.525 626.796 342.565C625.328 343.023 623.855 343.502 622.396 343.996C616.212 346.093 610.025 348.575 605.477 351.344ZM1043.27 301.266C1040.7 299.878 1037.78 298.581 1034.59 297.389C1053.4 297.272 1072.09 297.403 1090.61 297.756C1100.62 297.947 1110.84 298.18 1121.12 298.572C1104.1 302.407 1084.41 304.875 1068.28 306.898L1067.77 306.962C1062.73 307.592 1057.69 308.202 1052.65 308.786C1050.63 305.96 1047.29 303.448 1043.27 301.266ZM337.721 312.028C378.606 303.958 419.745 296.912 461.117 290.889C415.232 288.875 368.767 289.227 322.965 290.709C283.604 293.811 244.267 297.168 204.955 300.632C152.655 305.243 100.399 310.083 48.5618 316.625C47.9381 316.704 47.2074 316.794 46.385 316.897C41.8849 317.459 34.6409 318.365 27.1711 319.427C19.9901 320.448 12.7933 321.587 7.65626 322.677C7.94878 322.709 8.23998 322.741 8.52874 322.773C52.0186 327.599 98.267 326.002 142.745 324.465C146.344 324.341 149.932 324.218 153.505 324.098C212.13 322.126 270.664 318.298 329.111 313.77C332.137 313.145 335.021 312.562 337.721 312.028ZM270.522 239.202C268.212 239.155 265.9 239.111 263.591 239.066C266.144 238.849 268.697 238.628 271.25 238.404C270.999 238.671 270.756 238.938 270.522 239.202ZM201.879 238.247C227.387 236.726 252.835 234.735 278.259 232.445C278.642 232.17 279.035 231.896 279.437 231.619C283.86 228.578 288.852 225.715 294.309 223.017C261.236 227.386 228.048 231.438 194.806 235.145C190.72 236.122 186.644 237.123 182.581 238.148C189.014 238.167 195.447 238.201 201.879 238.247ZM791.049 244.584C815.646 246.818 840.738 247.366 865.605 247.774C893.112 244.472 920.416 240.769 947.347 236.57C950.744 236.042 954.723 235.418 959.009 234.717C924.196 235.185 889.535 236.558 855.309 238.814C833.79 240.231 812.339 242.11 791.049 244.584Z" fill="#FF7870"/>
</svg>
