<?xml version="1.0" encoding="utf-8"?>
<!-- Generator: Adobe Illustrator 24.3.0, SVG Export Plug-In . SVG Version: 6.00 Build 0)  -->
<svg version="1.1" id="Layer_1" xmlns="http://www.w3.org/2000/svg" xmlns:xlink="http://www.w3.org/1999/xlink" x="0px" y="0px"
	 viewBox="0 0 523.1 499" style="enable-background:new 0 0 523.1 499;" xml:space="preserve">
<style type="text/css">
	.st0{fill-rule:evenodd;clip-rule:evenodd;fill:#FF7870;}
</style>
<path class="st0" d="M235.6,0c-39.7,0-79.4,0.9-119.1,3l-2.6,0.1C92,4.3,67.3,5.6,45,9.8c-61.3-0.6-123-0.1-184.1,1.4
	c-9.9,0.2-19.7,0.6-29.6,1c-34.6-0.8-65.5-1.9-87.7-3.5c-1.9-0.1-3.7,0.9-3.9,2.4c-0.2,1.5,1.2,2.8,3.2,2.9
	c8.7,0.6,18.8,1.2,29.9,1.7c-24.7,1.9-49.4,4.2-74,7c-8,0.9-26.5,3.1-41.8,5.1v5.4c15.3-2,34.6-4.3,42.8-5.2
	c43.7-4.9,87.5-8.5,131.6-10.4C-113,18.7-48.1,19,5.8,18.9c5,0,9.9,0,14.7-0.1c-0.1,0.2-0.3,0.4-0.4,0.6c-1.5,2.6-0.8,5.1,0.7,7.3
	c-47.8,1.4-95.4,5.4-142.5,13.6c-3.5-0.1-7-0.1-10.5-0.2c-30-0.6-59.8-1-89.6-1.3c-34.4-0.4-68.8-0.8-103.4-1.6
	c-2.1-0.1-5.3,0-8.8,0.1l-1.5,0c-2.4,0-4.9,0.1-7.5,0.1v5.3c2.7,0,5.3,0,7.7-0.1l1.5,0c3.6-0.1,6.5-0.1,8.5-0.1
	c34.4,0.8,69.1,1.2,103.7,1.6c24.7,0.3,49.4,0.6,74,1c-26.1,5.1-52.3,11.4-76.7,19.9c-5.5,1.9-10.7,4-14.9,6.2
	c-4.1,2.2-7.7,4.6-9.4,7.4c-0.9,1.4-1.4,3-1,4.7c0.3,1.7,1.4,3.2,3,4.5c3.1,2.6,8.5,4.7,16.2,6.6c11.3,2.8,22.9,5,34.6,6.7
	c1.3,0.5,2.8,1,4.4,1.4c6.6,1.6,15.8,2.5,24.5,3.1c7.3,0.5,14.5,0.7,19.9,0.8c0.9,0,1.7,0.1,2.5,0.1c16.6,1.1,33.1,1.9,49.1,2.5
	c2.1,0.1,4.2,0.2,6.2,0.3c-11,0.7-22,1.5-33,2.4c-5.9,0.5-11.9,0.9-17.9,1.4c-50.9,4-105.6,8.3-154.2,19.9c-0.4,0.1-0.8,0.2-1.4,0.3
	c-0.2,0-0.5,0.1-0.7,0.1c-0.8,0.2-1.8,0.4-2.7,0.7c-0.9,0.3-2,0.7-3,1.4c-1,0.8-1.8,1.9-1.8,3.2c0.1,1.4,1,2.4,2.1,3.1
	c1,0.6,2.2,1,3.1,1.2c1.3,0.3,3,0.5,4.2,0.6c0.4,0,0.7,0.1,0.9,0.1c4,0.5,8.1,0.9,12.1,1.1c-20.6,3.6-41.1,7.4-61.4,11.6v5.5
	c28.5-5.9,57.3-11.1,86.2-15.9c45.9,2,92.2,1.9,137.9,0.3c3.3-0.1,6.7-0.3,10-0.4l-0.5,0.1c-2.6,0.4-7.6,1.3-11.4,2.2
	c-1,0.2-1.9,0.5-2.7,0.8c-0.8,0.3-1.7,0.7-2.4,1.2c-0.6,0.4-2,1.5-1.6,3.2c0.4,1.5,2,2.3,2.8,2.6c0.9,0.4,2.2,0.6,3.3,0.8
	c0.2,0,0.3,0.1,0.5,0.1c-24.7,1.7-49.3,4.8-73.5,8.8c-29.9,5-59.4,11.3-88.4,18.4c-3,0.7-6.1,1.5-9.4,2.2
	c-9.5,2.2-20.1,4.7-30.1,7.8c-7.3,2.3-14.5,4.9-20.9,8.1v6.5c6.7-3.9,14.9-7.1,23.6-9.8c9.7-3,19.8-5.4,29.3-7.6
	c3.3-0.8,6.6-1.5,9.7-2.3c28.8-7,58.2-13.3,87.8-18.3c37.7-6.3,76.1-10.1,114.7-10.4c0.7,0,5.6,0,10.8,0.2c2.6,0.1,5.3,0.2,7.5,0.4
	l0.2,0c-22.5,8.8-48.6,14.6-73.8,20.2c-4.6,1-9.1,2-13.6,3c-20.6,4.7-41.3,8.9-62.3,12.7c-27,2.4-54,5.2-80.8,8.5
	c-5.2,0.6-15.5,2.1-23.2,3.4c-3.8,0.6-7.2,1.3-9,1.8c-0.4,0.1-1.1,0.3-1.6,0.6c-0.2,0.1-0.9,0.5-1.3,1.1c-0.1,0.2-0.3,0.4-0.3,0.7
	c-5.8,0-11.7,0-17.6,0v5.3c10,0.1,19.8,0,29.5-0.1c9.3-0.1,18.4-0.1,27-0.1c74.1,0.4,147.9-2.2,221.6-5.6
	c-28.5,4.7-56.9,10.4-84.9,17.1c-27.8,3.1-55.7,6-83.5,8.5c-15.7,0.2-31.4,0.5-47.1,0.9c-3.7-0.2-7.3-0.4-11-0.7
	c-20.6-1.5-39.5-3.9-51.6-7.7v5.7c5.8,1.6,12.7,2.9,20.2,4.1c-6.7,0.2-13.5,0.5-20.2,0.8v5.3c2.3-0.1,4.5-0.2,6.8-0.3
	c-2.3,0.1-4.5,0.3-6.8,0.4v5.3c21.3-1.2,42.6-2.7,63.9-4.4c8.1-0.7,16.2-1.4,24.3-2.1c17.6,0.5,33.7,0.5,45.1,0.4
	c-40.7,12.5-79.6,27.6-115.4,46.1c-0.4,0.2-0.9,0.5-1.4,0.7c-4.5,2.3-10.9,5.6-16.6,9.6v7.6c6-5.3,14.6-9.7,20.7-12.9
	c0.5-0.2,0.9-0.5,1.3-0.7c40.5-20.9,85.2-37.6,132-50.9c16.1-0.5,32.1-1.3,48.2-2.3c21.7,0.2,43.3,0.5,65,0.9
	c-0.3,0.6-0.5,1.2-0.6,1.8c-1.3,4.9,0.9,9.1,5.1,12.5c4.1,3.4,10.2,6.1,17.1,8.3c7,2.2,15.2,4.1,23.8,5.6c32.6,5.8,72.1,7,77.3,7.2
	c0.2,0,0.4,0,0.5,0c1.7,0.1,3.4,0.1,5.1,0.2c-24.3,1.7-48.6,3.5-72.9,5.4c-23.4,0.8-46.7,1.8-69.5,3
	c-82.5,4.3-164.4,12.8-245.5,24.5c-2.3,0.3-4.8,0.7-7.5,1.1v13c0.8,0.2,1.7,0.3,2.5,0.4c1.3,0.2,2.7,0.3,3.9,0.5
	c0.4,0,0.7,0.1,1.1,0.1c44.2,4.9,91.1,3.3,135.5,1.8c3.6-0.1,7.3-0.3,10.9-0.4c46.3-1.6,92.6-4.3,138.8-7.6
	c-14.4,3.4-28.7,6.9-40.1,10.2c-0.8,0.2-8,2.4-15.6,5c-3.8,1.3-7.7,2.7-10.9,4c-1.6,0.7-3.1,1.3-4.4,1.9c-1.2,0.6-2.4,1.3-3.2,2
	c-1.6,1.4-2.9,3.2-2.4,5.2c0.5,2.1,2.7,3.2,4.5,3.9c3.6,1.3,9.3,1.7,15,1.9c1.3,0,2.7,0.1,4.1,0.1c-34.2,4.2-68.6,9-102.5,14.9
	c-26.2-1.7-51.9-5.1-76.5-11.8c-7.5-2-21.6-6.6-35.1-12.2c-6.7-2.8-13.2-5.9-18.6-9c-2.7-1.6-5.1-3.2-7-4.7v7.3
	c0.8,0.5,1.7,1.1,2.6,1.6c5.7,3.4,12.6,6.6,19.5,9.5c13.8,5.8,28.3,10.4,36.1,12.6c19.1,5.2,38.9,8.5,58.9,10.5
	c-19.6,3.7-38.9,7.9-58,12.6c-12.9,3.2-36.7,9.9-57,15.8c-0.7-0.1-1.4-0.3-2-0.4v6.7c0.8-0.2,1.6-0.5,2.4-0.7
	c11.8,2.5,22.2,4.5,29.8,6c2.2,0.4,4.2,0.8,6,1.2c4.3,0.9,8.7,1.7,13,2.6c-7.4,2.3-15.4,4.9-23.1,7.9c-10.7,4.2-21,9.3-28.2,15.7
	v18.2c5.6,3.5,14.4,5.9,23.4,7.6c15.9,3,34.2,4.2,40.9,4.6c1.1,0.1,1.9,0.1,2.3,0.2c8.4,0.7,16.8,1.4,25.2,1.9
	c-30.3,5.4-61.8,11.1-91.8,19v5.6c31.1-8.4,64.2-14.2,96.3-19.9c6.2-1.1,12.5-2.2,18.6-3.3l0.5-0.1c51.3,2.1,102.8,0.7,154.2-2.5
	c0,0.1,0.1,0.2,0.1,0.3c0.8,1.6,2.3,2.8,3.9,3.8c1.6,1,3.6,1.9,5.6,2.6c7.5,2.8,17.4,4.5,19.4,4.9c0.1,0,0.2,0,0.3,0
	c50.1,9,103.9,8.6,155.2,8.2c7.9-0.1,15.7-0.1,23.4-0.1c180.1-0.6,359.9-6,539-21.4c3.4-0.3,6.8-0.6,10.2-0.9
	c37.9-3.2,76.5-6.5,113.9-12.6c0.1,0,0.3,0,0.5-0.1c3.5-0.5,20-3.2,34.2-7.3c2.2-0.7,4.5-1.4,6.6-2.1v-9.3
	c-77.5,5.9-155.6,8.7-233.6,10.6c0-0.3,0-0.6,0-0.9c-0.2-1.1-1-2.1-1.9-2.9c-1.7-1.5-4.7-2.7-8.5-3.9c-23.6-7.4-52.1-8.3-77.2-9.1
	c-3.2-0.1-6.3-0.2-9.4-0.3c-51-1.9-102.1-2.3-153.2-1.9c7.5-0.9,15.1-1.8,22.6-2.8c23.7-2.3,47.4-4.3,71.1-6
	c24.4-1.2,48.8-2.7,73.2-4.3l0.2,0c71-3.3,142.9-4.2,213.9-1.2c20.6,0.9,52.4,3,73.1,6.1c3.7,0.5,11.3,1.8,18.9,3.7
	c3.8,0.9,7.5,1.9,10.7,3.1v-5.8c-2.7-0.8-5.6-1.6-8.5-2.3c-7.9-1.9-15.8-3.2-19.7-3.8c-21.2-3.2-53.4-5.3-74.1-6.2
	c-5.2-0.2-10.4-0.4-15.6-0.6c39.4,0.1,78.8,0.9,117.8,2.8v-5.3c-54-2.6-108.4-3.1-162.8-2.6c22.1-1.9,44.2-3.7,66.2-5.5l3.2-0.3
	c31-2.5,62.3-5,93.3-8.7v-5.4c-31.2,3.7-62.8,6.3-94.2,8.8l-3.1,0.2c-23.3,1.9-46.7,3.9-70.1,5.8c-26,2.2-52,4.4-78,6.5
	c-13.6,0.3-27.2,0.7-40.7,1.1c-2.4,0.1-4.8,0.1-7.2,0.2c-21.3,0.6-42.9,1.2-64.4,2.4c10.4-3.1,20.3-6.8,29.1-11.3
	c3.2-1.7,5.6-3.5,6.6-5.6c1.1-2.3,0.5-4.5-1-6.3c-1.5-1.7-3.8-3.1-6.2-4.3c-2.5-1.2-5.5-2.2-8.6-3.2c-12.1-3.7-27.7-5.9-30.4-6.3
	l-0.1,0c-11.7-1.7-23.5-2.9-35.5-3.8c32.9-2.5,65.6-6,98.2-10.1c8.7-1.1,17.8-2.1,27-3.2c17.6-2,36-4.1,54-6.8
	c14.4-2.2,28.7-4.7,42.5-8c37.1-0.1,74.2-0.8,111.2-2.4c4.6-0.2,9.4-0.4,14.3-0.6c14.4-0.5,30-1.1,45.3-2.5
	c3.8-0.3,7.5-0.7,11.3-1.2v-5.4c-4,0.5-8,0.9-12.1,1.3c-15.1,1.3-30.3,1.9-44.7,2.4c-5,0.2-9.9,0.4-14.6,0.6
	c-30.2,1.3-60.5,2-90.8,2.3c5.5-1.7,10.9-3.6,16.2-5.6c7.7-3,13-6.2,16-9.7c2.1-2.4,2.9-4.9,2.7-7.4c4.8-0.6,9.5-1.1,14.3-1.7
	l0.9-0.1c20-2.5,46.5-5.8,66.4-11.8c0.2-0.1,0.5-0.2,0.9-0.3c0.5-0.1,1.2-0.3,1.9-0.5c13.4,1.3,28.5,3.1,43,5.6v-6.7
	c-10.6-1.5-21.4-2.7-32.3-3.5c1.4-1,2.6-2.2,3-3.8c0.8-2.5-0.7-4.9-3.5-6.9c-3.9-2.8-9.3-4.9-15.1-6.5c-5.9-1.6-12.5-2.8-19.1-3.7
	c-9.7-1.4-19.7-2.2-27.5-2.8c-2.8-0.2-5.2-0.4-7.3-0.6c-113.6-10.4-231.1-9.2-345.3-4.4c43.7-3.6,87.7-7.8,131.1-13
	c1.8,0,3.7,0.1,5.5,0.1l1.5,0c47.9,0.8,95.8,0.6,143.7,0.5c18.6-0.1,37.2-0.1,55.7-0.1c14.3,0,28.8,0.2,43.4,0.4
	c22,0.3,44.2,0.6,66.2,0.2v-5.3c-21.8,0.4-43.7,0.1-65.6-0.2c-14.7-0.2-29.3-0.4-43.9-0.4c-18.6,0-37.2,0.1-55.8,0.1
	c-37.6,0.1-75.1,0.2-112.7-0.1c15-2,30-4.2,44.9-6.5l0.2,0c10.1-1.6,25.6-4,40.1-7.2c64.6,0.1,129.5,3.3,192.9,9.8V239
	c-57-5.8-115.2-9-173.3-9.6c0.8-0.3,1.6-0.5,2.4-0.8c37.1-3.2,73.9-7.4,110.2-12.9c0.9-0.1,2.3-0.3,4.2-0.6c5.7-0.8,15.4-2,24.9-3.9
	c6.3-1.2,12.7-2.7,18.1-4.5c5.2-1.8,10.2-4,12.7-7c0.4-0.4,0.6-0.9,0.8-1.4c0,0,0.1,0,0.1,0v-5.5c-1,0.2-2,0.4-3,0.6
	c-0.3-0.2-0.7-0.4-1-0.6c-2.3-1.2-5.3-2-7.2-2.5c-10.4-2.4-28.6-4.2-38.1-4.7c-1.3-0.1-2.5-0.2-3.8-0.2c17.7-2.2,35.5-4.5,53.1-6.8
	v-7.4c-38.4-4.2-78.7-2.3-116.3,0.9c-33.2,2.8-66.2,7.2-98.8,12.8c-5.5,0.3-11,0.7-16.5,1c-3.7-0.6-7.4-1.3-11.1-1.9
	c-24.9-4-49.1-6.9-63.8-8.4c11.9-2.5,23.8-4.9,35.5-7.2c4-0.8,8-1.6,12.1-2.3c35.6-1.1,71.2-2.6,106.8-4.6
	c34.1-2,68.5-4.1,102.5-7.8c4.5-0.5,16.9-1.9,24.1-3.8c1.8-0.5,3.6-1.1,4.9-1.9c0.7-0.4,1.5-1.1,1.9-2c0.4-1.1,0.2-2.1-0.5-3
	c-0.6-0.8-1.5-1.3-2.4-1.7c-0.9-0.4-1.9-0.8-3.1-1.1c-2.4-0.7-5.6-1.3-9.9-2c-3.3-0.5-6.6-1-10-1.4c14.9-1.2,29.8-2.3,44.7-3.2v-5.3
	c-23.6,1.4-47.2,3.3-70.7,5.5c-25.9-2.6-52.3-4-78.2-5.5c-8-0.4-16-0.9-23.9-1.4c-64.3-3.8-128.7-5.8-193.2-6.8
	c-26.5-3.3-53.3-5.9-80.3-7.8c3-1,6-1.9,8.9-2.9c3.7,0.3,7,0.5,9.3,0.6c1.5,0.1,2.6,0.1,3.3,0.2c59.1,5,119,3.6,177.9,1.3
	c76.6-3,152.8-9.3,228.7-16.7c6-0.6,12-1.2,18-1.8v-5.3c-6.3,0.6-12.6,1.2-18.9,1.9c-75.9,7.4-151.8,13.7-228.2,16.7
	c-58.6,2.3-117.7,3.7-175.9-1.2c15.6-4.6,31.4-8.9,47.2-12.9c23.7-6,47.8-11.1,72-15.6c26.9,0,53.9,0,80.8,0c11.5,0,23,0,34.5,0
	c11.4,0,22.8,0,34.2,0.1c51.4,0.1,103,0.3,154.4-2.3v-5.3c-51.2,2.6-102.8,2.5-154.3,2.4c-11.4,0-22.9-0.1-34.3-0.1
	c-11.5,0-22.9,0-34.4,0h-0.1c-16.7,0-33.4,0-50.1,0C655.3,57,747.2,51.8,839,51.3V46c-102.4,0.5-205.2,6.9-304.7,25.2
	c-17.2,0-34.5-0.1-51.7-0.2l4.4-0.3c50.5-3.7,101.7-7.4,151.1-15.8l0.2,0c2.3-0.4,18-3,30.2-6.9l0.1,0c6.9-0.4,12.3-0.7,14.7-0.8
	l0.6,0c1.8-0.1,5.2-0.3,9.2-0.7c37.4-1.4,74.9-1.9,112.4-2c11.1,0,22.2,0,33.3,0.2v-5.3C827.9,39,816.8,39,805.7,39
	c-26.8,0-53.6,0.3-80.4,1c0.2-0.3,0.4-0.6,0.5-0.9c0.5-1.6-0.5-3-1.4-3.8c-1.7-1.5-4.8-2.9-7.7-4c-6.2-2.2-14.6-4.2-19.5-5
	c-23.9-3.6-48.3-5.9-72.8-7.7c-5.4-0.4-10.7-0.8-15.8-1.2c-2.7-0.2-5.3-0.4-7.8-0.5c-10.4-0.8-20.9-1.4-31.3-1.9
	c-6.1-0.4-12.2-0.8-18.3-1.2C446.6,6.4,341.1,0,235.6,0z M-91.4,41c39-5.4,78.4-8.2,118-9.2c1.9,1.3,4,2.5,6.2,3.6
	c3.9,2,8.1,3.7,11.7,4.9c4.9,1.7,9.9,3.3,15,4.8c-17.7-0.5-35.5-1-53.2-1.5C-26.4,42.7-58.9,41.8-91.4,41z M47.4,35.6
	c11.7,4.1,24.1,7.4,36.8,10.2c6.1,0.2,12.2,0.3,18.3,0.5c6.8-1.5,14.9-3,23-4.4c17.9-3,36.3-5.4,41.4-6.1c0.8-0.1,1.2-0.2,1.4-0.2
	c0.7-0.1,1.4-0.2,2.1-0.3c-44.2-2.7-88.4-4.3-132.5-3.6C41.1,33.2,44.5,34.6,47.4,35.6z M5.6,48.9c8.4,0.2,16.7,0.5,25.1,0.7
	c-63.3,4.2-126.1,12.3-186.6,26c-0.5,0.1-16.9,3.8-29.6,8.5c-3.2,1.2-6.2,2.4-8.7,3.7c-2.5,1.3-4.7,2.7-6.1,4.4
	c-0.6,0.8-1.1,1.6-1.2,2.6c-9.1-1.5-18.1-3.3-26.8-5.5c-7.3-1.8-11.3-3.6-13.1-5.1c-0.9-0.7-1.2-1.3-1.3-1.7c-0.1-0.4,0-1,0.4-1.7
	c0.9-1.5,3.3-3.3,7.1-5.3c3.7-2,8.5-3.9,13.8-5.8c31.4-11.1,66.2-18.2,100.4-24.2C-78.8,46.6-36.6,47.8,5.6,48.9z M-193.3,96.2
	c16.1,2.4,32.7,3.9,49.2,5.1l0.3,0c28.4,0.9,53.3,1,82.1,0.6C71,99.8,204,88.6,336.5,77.4c10.2-0.9,20.3-1.7,30.5-2.6
	c-57.6-1.2-115.3-3.4-172.6-8.8c-15.6-0.2-31.2-0.6-46.7-1.2c0.1,0-15.3,0-30.4-0.9c-7.6-0.4-15.4-1.1-21.4-2.1
	c-3-0.5-5.8-1.1-7.9-1.9c-1.9-0.7-4.5-1.9-5-4.2c-0.3-1.5,0.6-2.7,1.5-3.5c0.1,0,0.1-0.1,0.2-0.1C3.8,55-76.9,63.3-153.8,80.7
	c-0.5,0.1-16.4,3.7-28.5,8.2c-3,1.1-5.7,2.2-7.8,3.3c-2.2,1.1-3.5,2.1-4,2.8c-0.1,0.2-0.2,0.3-0.2,0.3c0,0,0,0.1,0,0.1
	c0,0,0,0.1,0.1,0.1C-194.2,95.7-193.9,95.9-193.3,96.2z M136.4,105c2.2,0,4.4,0,6.7,0.1c4.6-0.1,9.3-0.3,13.9-0.5
	c48.8-1.7,97.6-4.9,146.2-9.1c18.9-1.6,50-4.7,69.1-7.7c0.3-0.1,0.7-0.1,1.1-0.2c5.1-2.8,12.6-5.5,21.4-8c2.9-0.8,6-1.7,9.3-2.5
	c-22.2,1.8-44.4,3.7-66.6,5.6c-110.7,9.3-222,18.7-333.3,22.7C48.2,104.4,92.3,104.5,136.4,105z M-121.5,117
	c34-2.8,68.1-4.5,102.3-5.6c1.8,0,3.6,0.1,5.3,0.1c-60,3.7-119.5,10.2-178.6,19.2c-21.5,3.3-43.1,6.6-64.8,10.2
	c-3.4-0.1-6.7-0.3-10.1-0.5c-1.1-0.1-2.2-0.1-3.3-0.2c-7.4-0.4-14.6-0.7-21.6-1.6c-0.4,0-0.8-0.1-1.3-0.2c0.5-0.1,1-0.2,1.5-0.3
	c47.9-11.4,101.8-15.7,152.8-19.7C-133.4,117.9-127.4,117.5-121.5,117z M191.7,111.7c-1.4-0.3-3-0.7-4.8-0.9
	c59.3,0.6,119.5,1.5,179,5c-2.9,1.1-5.7,2.1-8.5,3.2c-55.3-0.1-110.5,0.7-165.6,2.5c0.9-0.3,1.8-0.6,2.5-0.9c1.1-0.5,2.2-1.1,3-1.9
	c0.9-0.9,1.3-2.2,0.7-3.5c-0.6-1.1-1.7-1.9-2.6-2.3C194.1,112.4,192.9,112,191.7,111.7z M233.8,106.1c48.1,0.8,96.6,2.1,144.7,5.2
	c3.2-1.1,6.5-2.2,9.8-3.3c-4.3-0.6-8.6-1.4-12.2-2.5c-4.1-1.2-8.4-3.1-10-6.1c-1-1.8-0.9-3.5-0.1-5.2c-19.3,2.7-45.4,5.2-61.9,6.6
	C280.6,102.8,257.2,104.6,233.8,106.1z M460.9,87.1c15.4-3.9,31-7.4,46.6-10.7c-24.4-0.1-48.9-0.2-73.3-0.5
	c-7,1.4-13.6,2.8-19.9,4.3c-0.6,1.1-1.7,2.2-3.1,3c-2.1,1.3-5.3,2.5-8.6,3.5c-3.4,1-7.2,2-11,2.8c-5.8,1.3-11.5,2.4-15.3,3
	c-1.9,1.1-3.1,2.1-3.6,3c-0.5,0.8-0.5,1.3-0.2,1.8c0.5,0.9,2.2,2,6.1,3.2c3.6,1.1,8.3,1.9,13.3,2.5c3,0.4,6,0.7,8.8,0.9
	C420.5,97.7,440.8,92.1,460.9,87.1z M700.5,40.3c-2.7,0.3-5.3,0.5-7.7,0.7c-3.4,0.1-6.9,0.3-10.3,0.4c0.5-0.4,0.9-0.9,1.3-1.3
	c1.6-1.9,2-4.2,0.4-6.4c-1.2-1.8-3.5-3.3-6.6-4.6c6.1,0.8,12.1,1.6,18.1,2.5c4.3,0.7,12.2,2.5,17.8,4.6c1.8,0.6,3.1,1.2,4,1.7
	c-1.5,0.4-3.5,0.8-6,1.2C708.2,39.4,704.3,39.9,700.5,40.3z M673.6,40c-1.4,0.7-3.1,1.4-4.9,2c-17,0.8-34,1.9-50.9,3.2
	c-6.4,0.3-11.9,0.6-15.9,0.8l-0.1,0c-3.1,0.2-5.2,0.3-5.9,0.3c-25.3,1.3-50.5,2.8-75.7,4.2c-54.3,3.1-108.5,6.2-162.8,8.2
	c-12.1-1.9-24.3-3.6-36.6-5c3,0,5.9-0.1,8.9-0.2c1,0,2.4,0.1,4.2,0.2l0.6,0c1.5,0.1,3.3,0.2,4.9,0.3c1.7,0,3.8,0,5.6-0.6
	c1-0.3,2-0.8,2.8-1.7c0.8-0.9,0.9-1.9,0.8-2.9c-0.2-1.5-1.6-2.3-2.4-2.7c-0.9-0.5-2-0.8-3.1-1.2c-2.2-0.6-5.2-1.2-8.5-1.7
	c-6.7-1-15.6-2-24.4-2.7c-8.8-0.8-17.8-1.4-24.6-1.9c-3.9-0.3-7.1-0.5-9.3-0.6c-1.7-0.1-2.8-0.2-3.2-0.2
	c-16.3-1.4-32.6-2.8-48.9-4.1C278.8,27.6,333.8,24,389,21.6c59.9-2.6,120.1-4.1,179.9-1.3c5.4,0.3,10.9,0.7,16.4,1
	c12.8,0.8,25.6,1.6,38.4,2.5c4.7,0.4,9.4,0.8,14,1.4c12.9,1.5,25.3,3.9,35.3,7.9c3.1,1.3,4.4,2.3,4.8,2.9c0.2,0.4,0.3,0.7-0.2,1.3
	C677.1,38,675.8,39,673.6,40z M520.9,55.8l3.9-0.2c-18,2.5-38.3,5.5-58.1,8.9c-7.9,1.3-15.7,2.7-23.2,4.2
	c-7.5,0.6-15.1,1.2-22.6,1.8l-2,0c-4.1-0.1-8.2-0.1-12.4-0.2c-4-1.7-9-3.3-14.1-4.6c-3.6-1-7.4-1.8-10.9-2.6
	C427.9,61.1,474.4,58.5,520.9,55.8z M585.3,53.3c-5.5,0.5-41.8,4.7-83.1,10.9c45.2-3.3,90.5-7.1,134.4-14.6l0.2,0
	c0.2,0,0.5-0.1,0.9-0.2c-6.8,0.4-13.4,0.7-19.4,1C607.3,51.3,596.3,52.3,585.3,53.3z M360.9,64.7c1.2,0.2,14.1,2.3,26.3,5.3
	c-39.6-0.7-79.1-1.7-118.5-3.8c24.2-0.3,48.4-0.8,72.5-1.6c5.2-0.2,10.4-0.3,15.6-0.5C358.2,64.2,359.5,64.4,360.9,64.7L360.9,64.7z
	 M325.9,59.7c-43.6,1.2-87.3,1.7-131,1.1c-3.9-0.4-7.7-0.7-11.6-1.1c-21.4-2.2-43.6-4.5-65.5-7.8c47.2,1.1,94.3,1.9,141.5,2
	C281.6,55.2,303.9,57,325.9,59.7z M91.3,55.1c1.1-0.5,2.5-1,4.3-1.5c12.2,2.3,24.6,4.2,37,5.8c-4.5-0.1-9.6-0.3-14.7-0.6
	c-7.5-0.4-14.9-1.1-20.4-2c-2.8-0.5-4.9-1-6.3-1.5c0,0-0.1,0-0.1,0C91.1,55.2,91.2,55.1,91.3,55.1z M309.9,48.5
	c-16.8,0.1-33.5,0.2-50.3,0.1c-21.3-1.2-42.6-1.9-63.8-2.3c-20.7-0.4-41.5-0.5-62.3-0.4c15.2-2.4,29.5-4.3,34.4-5
	c0.9-0.1,1.5-0.2,1.7-0.2c9.1-1.3,18.2-2.6,27.4-3.7c25.2,1.8,50.3,3.9,75.4,6.1c0.4,0,1.7,0.1,3.8,0.2c2.2,0.1,5.3,0.3,8.9,0.6
	c6.9,0.5,15.7,1.1,24.4,1.9c8.3,0.7,16.4,1.6,22.7,2.5c-0.9,0-1.9-0.1-2.7,0c-5.9,0.2-11.8,0.2-17.7,0.3L309.9,48.5z M29.3,26.5
	c55.8-1.2,111.7,1.2,167.4,5.2c63.5-8.1,127.6-12.6,191.9-15.4c27.5-1.2,55.1-2.1,82.8-2.5C353.4,6.4,234.9,2.1,117,8.3l-2.3,0.1
	c-10.1,0.5-20.6,1.1-31.2,1.9c3.4,0.1,6.7,0.1,10.1,0.2c7.3,0.1,12.8,0.3,16.7,0.5c1.9,0.1,3.5,0.2,4.6,0.2c1,0.1,2.1,0.2,2.9,0.3
	c0.2,0,0.7,0.2,1.1,0.4c0.3,0.2,2.1,1.2,1.5,2.9c-0.2,0.7-0.8,1.1-1.1,1.3c-0.3,0.2-0.6,0.4-0.8,0.4c-0.4,0.1-0.7,0.2-0.9,0.3
	c-0.7,0.1-1.7,0.2-2.8,0.3c-2.2,0.2-5.7,0.3-10.3,0.5c-14.7,0.5-41.1,0.9-73.6,1.1c-2.8,1.1-4,2.1-4.4,2.8c-0.5,0.8-0.4,2,1.5,3.9
	C28.5,25.8,28.9,26.2,29.3,26.5z M373,119c2.2-0.8,4.5-1.6,6.7-2.4c11.9,0.8,23.8,1.7,35.7,2.7c-4.2,0-8.5-0.1-12.7-0.1
	C392.8,119.1,382.9,119.1,373,119z M402.6,124.5c23.3,0.2,46.6,0.4,69.8,0.8c15.1,1.9,30,4.1,44.9,6.5c0.3,0.1,0.8,0.1,1.4,0.2
	c4.4,0.7,15.8,2.5,23.7,4.7c2.3,0.6,4.1,1.3,5.3,1.8c0.1,0.1,0.2,0.1,0.3,0.1c-1.3,0.5-3.6,1.2-7.2,1.8c-34.5,6.2-71.7,7-108.2,7.9
	c-10.3,0.2-20.5,0.5-30.6,0.8c-29,1-57.9,1.9-86.9,2.8c-0.2-0.2-0.3-0.3-0.5-0.5c-1.1-1.3-1.1-2.7,0.7-4.9c1.9-2.3,5.3-4.8,9.6-7.3
	c4.3-2.5,9.2-4.8,13.8-6.8c6.6-2.9,13.4-5.7,20.3-8.3C373.5,124.3,388,124.4,402.6,124.5z M309.2,143.9c-2.1,2.5-3.2,5.5-2,8.4
	c-111.1,3.1-222.3,4.7-333.4,3.6c-18-0.2-47.1-0.8-65.8-1.7c0,0,0,0-0.2,0l-0.2,0c-0.1,0-0.3,0-0.5,0c-0.1,0-0.2,0-0.4,0
	c-0.7,0-1.8-0.1-3.1-0.2c-2.6-0.2-6-0.4-9.5-0.7c-2.9-0.2-5.9-0.5-8.5-0.8c2.4-0.5,4.8-0.9,6.4-1.2c16.3-2.7,51.6-6.9,66.3-8.5
	c2.7-0.3,5.4-0.6,8.1-0.9c16.5-1,33-2.2,49.5-3.3c11.5-0.8,23-1.6,34.5-2.3c7.7-0.5,15.5-1,23.3-1.4c26.5-1.6,53.7-3.2,80.1-6.6
	c63.1-2.8,126.4-3.9,189.9-4c-3,1.2-5.9,2.5-8.9,3.8c-4.7,2.1-9.9,4.5-14.5,7.2C316,137.9,311.7,140.8,309.2,143.9z M-34.1,136.7
	c62.4-6.5,124.9-10.9,187.4-13.7c9.9-1.3,19.6-2.9,29.2-4.8c2.9-0.6,5.1-1.1,6.6-1.6c-1.9-0.4-4.5-0.9-7.9-1.2
	c-43.4-4.3-89.4-2.8-133.5-1.5l-4.2,0.1c-79,2.5-157,10-234.5,21.7c-12.8,1.9-25.6,3.9-38.5,5.9c36.8,1,73.8,0.7,110.4-0.7
	C-90.8,140.1-62.5,138.5-34.1,136.7z M-92.1,223.2c18.8-3.6,37.7-6.7,56.6-9.5c2.5,0.2,4.9,0.5,7.2,0.7c-0.7,0.3-1.4,0.5-2.1,0.8
	C-51,218-71.5,220.7-92.1,223.2z M-28.2,220.3c9-1.2,18-2.5,27-3.7c14.5,1,29.1,1.7,43.6,2.3c-0.5,0.2-1,0.4-1.5,0.6
	c-2.6,1-4.7,2-6.3,3c-0.1,0.1-0.2,0.1-0.3,0.2c-6.8,0.7-13.5,1.4-20.3,2.1c-6.4,0.6-12.8,1.3-19.2,2c-15.6,1.6-31.2,3.2-46.9,4.7
	C-45,227.3-37,223.6-28.2,220.3z M56.2,220.2c0.9-0.3,1.9-0.5,2.9-0.8c1.1,0,2.1,0.1,3.1,0.1C60.3,219.7,58.3,219.9,56.2,220.2z
	 M79.1,214.6c5.6,0.1,11.3,0.2,16.9,0.3c10.4-1.6,20.8-3.4,31-5.6c2.9-0.6,13.9-3.2,20.5-5.8c0.9-0.4,1.6-0.7,2.2-1l-4.8,0.2
	c-11.1,1.7-25.3,4-39.8,6.7C96.4,211,87.5,212.7,79.1,214.6z M37.8,227.5c19.7-2.1,39.4-4.4,58.9-7.4c24.4,0.4,48.7,0.4,73,0.4
	c65.7,0,131.5-0.4,197.2-3c5.8-0.2,11.4-0.5,16.8-0.7c-2.2,1.4-4.3,2.9-5.9,4.5c-2.1,2.2-3.7,4.8-3.2,7.8c0.6,3.2,3.2,5.6,6.2,7.5
	c-1.1,0-2.3,0.1-3.4,0.1c-72.8,2.4-165.6,5.3-240.6,3.9c-32.8-0.6-55.2-1-84-8.2c-0.9-0.2-1.8-0.4-2.7-0.7c-1.6-0.4-3.3-0.8-5-1.2
	c-2.8-0.7-5.1-1.5-6.5-2.3C38.1,228,37.8,227.7,37.8,227.5C37.8,227.6,37.8,227.6,37.8,227.5z M366.6,212.3
	c10.1-0.4,19.7-0.8,28.9-1.3c1.3-0.6,2.5-1,3.3-1.4c0.6-0.2,1-0.4,1.3-0.5c25.8-11.1,54-19.9,82.9-27.3c-1.4,0.1-2.6,0.3-3.7,0.4
	c-0.7,0.1-1.4,0.1-2,0.2c-48,5.1-96.5,7.8-144.7,10.5l-0.1,0c-4.1,0.2-8.3,0.5-12.4,0.7c-53.9,3-107.9,5.8-161.8,8.5
	c-0.1,1.6-1.4,2.8-2.4,3.5c-1.3,1-3.1,1.8-4.9,2.6c-7.3,3-19.1,5.7-22,6.3c-1.2,0.3-2.5,0.5-3.7,0.8c14.8,0.1,29.6,0.1,44.4,0.1
	C235.4,215.3,301.1,214.9,366.6,212.3z M390.1,219.9c2.5-1.4,5.1-2.6,7.5-3.7c10.2-0.5,20-1.2,30.1-1.9c-2.4,0.8-4.8,1.6-7.1,2.4
	c-3.5,1.3-6.7,2.5-9.2,3.7c-2.3,1.1-4.8,2.6-5.9,4.3c-0.6,1-0.9,2.2-0.2,3.5c0.6,1.2,1.7,2,2.9,2.6c2.3,1.2,6,2.1,10.7,2.8
	c3.7,0.6,7.6,1,11.4,1.4l-6.1,0.2c-9.9,0.3-19.8,0.6-29.7,0.9c-3.5-1-6.7-2.2-9.1-3.6c-2.4-1.4-3.5-2.8-3.8-4.2
	c-0.2-1,0.3-2.3,1.9-3.9C385.1,223,387.5,221.4,390.1,219.9z M459.6,206.2L459.6,206.2c22.7-4.9,45.9-9,69.7-12.2
	c0.8-0.4,1.5-0.7,2.1-1c2-1.1,2.6-1.9,2.7-2.3c0-0.1,0.2-0.7-1.3-1.8c-1.5-1.1-4.3-2.5-8.8-4.1c-4.4-1.5-9.1-2.9-13.9-4.1
	c-33.8,7.8-67.2,17.1-97.6,29.3C427.7,209.1,442.9,207.9,459.6,206.2z M461.2,211.4c-2,0.4-4,0.9-6,1.3c-10.9,2.4-21.6,5.1-31.5,8.7
	c-3.4,1.2-6.3,2.4-8.4,3.4c-1.6,0.8-2.5,1.3-2.9,1.7c1.1,0.6,3.6,1.3,8,1.9c18.6,2.9,39.4,2.5,60.4,1c10.5-0.8,21-1.8,31.3-2.9
	l2.8-0.3c9.3-1,18.5-1.9,27.3-2.6c44.8-3.6,89.6-7.4,134.3-11.6c-0.2-0.1-0.4-0.3-0.6-0.5c-4.4-3.5-12.6-6.9-23.4-10.1
	c-31.9,3.9-64.1,7.7-96.5,9.4c-4.6,0.2-8.1,0.3-10.8,0.3c-2.5,0-4.7-0.2-6.2-0.7c-0.7-0.2-2.2-0.8-2.7-2.1c-0.6-1.4,0.2-2.5,0.8-3
	c0.5-0.5,1.2-1,1.8-1.3c0.6-0.3,1.3-0.6,2.1-0.9c5.7-2.3,17.2-4.9,21.9-6c5.4-1.2,10.8-2.4,16.2-3.6c-15.9,1.5-31.7,3.3-47.3,5.4
	c-1.8,0.8-3.8,1.5-6,2.2c-9,3-21.1,5.1-33,6.7c-10.7,1.4-21.3,2.5-29.6,3.2L461.2,211.4z M542.9,229c44.8-3.6,89.6-7.4,134.3-11.6
	c-0.3,0.3-0.6,0.6-1,0.9c-2.1,1.7-5.6,3.4-10.2,5.1c-53.3,4.6-107.1,7.3-160.8,9.3c2.6-0.3,5.2-0.5,7.8-0.8l2.7-0.3
	C525.2,230.6,534.3,229.7,542.9,229z M681.4,221.9c0,0-0.1,0.1-0.1,0.1c32.1-3,64-6.8,95.6-11.6c1.1-0.2,2.7-0.4,4.7-0.6
	c5.8-0.8,14.8-2,24-3.7c6.1-1.2,12.1-2.6,17-4.2c0.9-0.3,1.8-0.6,2.5-0.9c-27.4,4.8-55.7,7.6-83.3,10.2c-5.5,0.5-11,1.1-16.4,1.6
	c-13.4,1.3-26.7,2.6-40.1,3.9C684.7,218.7,683.3,220.4,681.4,221.9z M740.9,205.9c28.4-2.7,57.1-5.5,84.8-10.5
	c-9.6-2.2-27.2-3.9-36.5-4.5c-11.3-0.7-22.6-1.3-34.1-1.7c-14.8,1.8-29.5,3.6-44.2,5.3c-10.8,1.3-21.5,2.6-32.2,3.9
	c-4.4,0.5-8.8,1.1-13.2,1.6c6.6,2.5,12.1,5.1,15.8,8c1.4,1.1,2.4,2.2,3.2,3.4c13.4-1.3,26.8-2.6,40.2-3.9
	C729.9,207,735.3,206.4,740.9,205.9z M823.9,175.1c-23.1,3-46.2,5.9-69.3,8.7c-27.5-1-55.5-1.3-83.7-0.7c17.5-2.3,35-4.3,52.6-5.8
	C756.4,174.6,790.8,172.8,823.9,175.1z M540.8,192.5c14.6-1.9,29.3-3.4,44.1-4.7c-22.7-3.4-43.8-5.8-56.1-7c3.9,1.5,6.9,2.9,8.9,4.4
	c2.4,1.8,3.9,4,3.3,6.6C541,192,540.9,192.2,540.8,192.5z M565,202.2c15.8-3.6,31.7-6.9,47.8-9.8c9,1.7,17.8,3.5,25.9,5.5
	c-27.7,3.3-55.4,6.3-83.2,7.8c-1.9,0.1-3.5,0.2-5,0.2C555.6,204.4,561.6,203,565,202.2z M653.3,196.1c-2.2-0.6-4.4-1.2-6.7-1.8
	c-5.7-1.5-11.8-2.9-18.2-4.2c30-1.6,60.1-2.1,89.7-1.8l-8.6,1c-10.7,1.3-21.5,2.6-32.2,3.9c-5.9,0.7-11.7,1.4-17.6,2.2L653.3,196.1z
	 M517.6,170.7c-3.1,1.1-7.8,2-13,2.9c-0.9-0.1-1.9-0.1-2.8-0.2c-13.5-2.6-27.8-4.2-41.9-5.2c3.8-0.1,7.5-0.1,11.2-0.1
	c8-0.1,16-0.1,24-0.2c5.4,0.5,10.8,1.1,16.2,1.8c0.1,0,0.4,0,0.7,0.1C513.1,169.9,515.5,170.2,517.6,170.7z M141,186.3
	c89.2-11.2,176.5-15.7,266.7-14.5c-83.3,1.6-165.9,10.9-247.6,23.2l-2,0.3c-2.3,0.4-5.1,0.8-8.3,1.3c-1.6-0.3-3.5-0.5-5.6-0.7
	c-20.1-1.9-41.1-1.9-62-0.7c-0.3-0.3-0.6-0.5-0.9-0.7c21.3-3.3,40.8-5.7,55.6-7.6C138.2,186.7,139.6,186.5,141,186.3z M82,200.5
	c3.3-0.2,6.6-0.3,9.9-0.5L82,200.5z M1.3,210.8c3.8-0.5,7.5-1.1,11.2-1.6l-6.4,0.3C4.5,209.9,2.9,210.3,1.3,210.8z M37.7,196.7
	c-7.5,1.5-15.1,3.2-22.5,4.9c-4.7,0.6-9.3,1.2-13.9,1.7l-1.8,0.2c-3.9,0.5-7.7,1-11.6,1.5l-4.3,0.2c-10.9,0.5-21.9,1.1-32.8,1.6
	c-6.2-0.7-11.9-1.5-16.1-2.3c-0.5-0.1-1.1-0.2-1.7-0.3c-2.6-0.5-5.5-1-7.9-1.7c-1-0.3-1.6-0.6-2-0.8c1.3-1.4,3.6-2.2,7.2-2.9
	c1.9-0.4,4-0.6,6.2-0.9l0.5-0.1c2-0.2,4.1-0.5,6.1-0.8c6.6-1.1,15.1-2.3,24-3.5c4.8,0,9.6-0.1,14.4-0.1c5.8,0,12-0.1,18.3-0.3
	c9.6-0.2,19.6-0.4,29.8-0.2c7.3,0.1,14.5,0.4,21.4,1C46.5,194.9,42.1,195.8,37.7,196.7z M-77.5,207.5c0.7,0.2,1.4,0.4,2.2,0.6
	c-66.6,3-133,5.3-199.7,5.1c9.5-1.3,19-2.8,28.1-4.3c2.1-0.3,4.2-0.7,6.3-1c11-1.8,21.9-3.6,32.8-5.6c44.3-3.9,88.7-6.6,133.2-7.8
	c-3.5,0.9-6.9,2.5-8.9,5.2c-0.6,0.9-0.9,1.9-0.7,2.9c0.2,1,0.9,1.8,1.6,2.5C-81.3,206.2-79.3,207-77.5,207.5z M-33.6,188.4
	c-43.3,0.4-86.5,2.1-129.6,5.1c6.1-1.3,12.3-2.7,18.4-4c4.4-1,8.9-2,13.4-3c25.5-5.6,52.7-11.7,76.1-20.9c1.4-0.6,3.1-1.7,4.1-2.7
	c0.4-0.4,1-1.1,1.3-1.9c8.7,0.2,16.9,0.3,23.6,0.4c112.8,1.2,225.9-0.5,338.6-3.7c3.3,1.9,7.9,3.4,13.8,4.6l0.1,0
	c-49.6,0.8-99.2,2.5-148.7,6.1c-56.3,4-112.6,9.1-168.6,15.2C-1.5,184.4-18.1,186.3-33.6,188.4z M328.5,157
	c10.7,2.2,21.8,3.7,33.1,4.7c5.8,0,11.7-0.1,17.5-0.1c9.8,0,19.8-0.2,29.9-0.4c28.5-0.5,58.1-1.1,86.4,1.4
	c27.9-0.3,55.8-0.9,83.6-1.7c52.9-10.1,106.8-18.3,161-24.3c-16.7-1.2-33.5-2.2-50.3-3.1c-8.1-0.4-16.1-0.9-24.1-1.4
	c-50-3-100-4.8-150.1-6c1.1,0.2,2.2,0.4,3.3,0.5c0.2,0,0.7,0.1,1.2,0.2c4.2,0.6,16.4,2.5,24.9,5c2.4,0.7,4.8,1.5,6.6,2.3
	c0.9,0.4,1.8,1,2.5,1.6c0.7,0.6,1.5,1.4,1.7,2.5c0.5,2.4-1.8,4.1-3.8,5c-2.2,1-5.3,1.8-9.5,2.5c-35.3,6.3-73.5,7.2-110,8
	c-10.2,0.2-20.2,0.5-30.1,0.8C377.7,155.5,353.1,156.3,328.5,157z M526.7,170c-0.2-1.2-1.1-2-1.9-2.5c7.8-0.1,15.6-0.3,23.3-0.5
	c-7.2,1.5-14.4,3-21.6,4.5C526.7,171.1,526.8,170.5,526.7,170z M686.3,156.3c-23.5,1.4-47,2.5-70.5,3.4
	c50.3-8.7,101.2-15.7,152.5-20.6c11.6,1.2,23.2,2.5,34.6,4.3c3.7,0.6,6.4,1.1,8.3,1.6l-0.2,0c-6.3,1.7-17.9,3-22.7,3.6
	C754.6,152.2,720.4,154.3,686.3,156.3z M178.3,173.4c40.5-2.9,81-4.6,121.5-5.5c-53.4,2.1-106.4,6.5-160,13.2
	c-1.3,0.2-2.7,0.3-4.2,0.5c-17.3,2.2-41.4,5.2-67.1,9.4c-12.2-2.2-25.6-3-38.8-3.2c-4.1-0.1-8.2-0.1-12.2,0
	C70.8,182.1,124.6,177.3,178.3,173.4z M60.9,206.8c-6.4,1.4-12.9,2.5-17,3.1c-6.2,0.9-12.5,1.9-18.7,2.8c10.9,0.5,21.9,1,32.9,1.3
	c12.4-3.3,27.3-6.4,41.9-9.1c-9.8,0.5-19.7,1-29.5,1.4L60.9,206.8z M319.6,188.3c-39.9,2.2-79.9,4.3-119.9,6.4
	c90.4-12.4,181.6-20.2,273.4-17.2c-46.7,4.9-93.9,7.5-141.1,10.1C327.9,187.8,323.7,188.1,319.6,188.3z M424.5,240.6
	c5.3-0.2,10.6-0.3,15.9-0.5c-4.9,0.6-9.8,1.2-14.7,1.9c-2.6-0.4-5.3-0.8-7.9-1.2L424.5,240.6z M393.4,241.6c5.7,1.5,11.4,2.5,14.6,3
	c-31.3,4.8-62.1,11.1-92.3,19.4c-0.9,0.2-2.1,0.5-3.6,0.9c-2.5,0.6-5.9,1.5-9.6,2.5c-6.3,0.4-12.6,0.9-18.9,1.3
	c-2-0.3-3.8-0.6-5.4-1c-21.5-4.8-56.6-10-77.5-12.6c-74.5-9.2-150.1-12.6-225.2-14.7c-13.1-0.4-26.2-0.7-39.3-1
	c0.7-0.6,1.5-1.2,2.3-1.9c19.1-1.7,38.2-3.6,57.3-5.6c6.3-0.7,12.7-1.3,19-2c5.2-0.5,10.5-1.1,15.8-1.6c0.1,0.5,0.3,1,0.6,1.5
	c0.7,1.2,1.9,2,3.1,2.7c2.3,1.3,5.5,2.3,8.4,3.1c1.9,0.5,3.9,1,5.6,1.4c0.9,0.2,1.7,0.4,2.4,0.6c29.8,7.4,53.1,7.8,85.6,8.4l0.4,0
	c75.3,1.4,168.3-1.5,241.1-3.9C383,241.9,388.2,241.8,393.4,241.6z M425.7,247.4c-31.9,4.4-63.3,10.2-94,18
	c50.5-3.6,101.6-7.8,152.4-13.2C464.6,251.4,445,250.1,425.7,247.4z M199.6,260.3c16,2,40.3,5.5,60.3,9.2
	c-45.7,1.3-91.3,3.4-136.9,6c-25.2,0.2-50.4,0-75.3-1c0,0-0.1,0-0.2,0c-0.1,0-0.2,0-0.4,0c-5.3-0.2-44.1-1.4-76-7
	c-8.3-1.5-16.1-3.2-22.6-5.3c-6.6-2.1-11.6-4.4-14.7-7c-3-2.5-4.1-5-3.4-7.9c0.2-0.8,0.6-1.7,1.2-2.6c14.6,0.3,29.1,0.7,43.7,1.1
	C50.4,247.8,125.6,251.2,199.6,260.3z M123.3,280.8c-18.5,1.1-37,2.2-55.6,3.5c26,0.3,52,1.1,77.7,2.8c27.8-3.7,55.7-7,83.7-9.8
	C194,279.1,158.6,280.4,123.3,280.8z M-88,336.9c21-5.9,52.3-13.2,75.5-17.9c26.6-2.1,53.1-4.3,79.6-6.5c0.6-0.1,2.4-0.2,5.2-0.4
	c16.4-1.2,67-5,116.6-9.9c9.1-0.9,18.2-1.8,27-2.8c6.3,0.9,12.5,1.8,18.7,2.8c4.9,0.8,9.6,1.7,13.4,2.7c4,1.1,6.6,2.2,7.9,3.1
	c0.3,0.2,0.4,0.4,0.5,0.5c0,0.1,0.1,0.1,0.1,0.1c0,0,0,0,0,0c0,0,0,0.1,0,0.1c0,0.1-0.1,0.2-0.4,0.5c-1.1,1.1-4.1,2.7-10.7,4.6
	c-34.3,10.1-72.6,14.8-109.4,19.4l-2.6,0.3C96.7,338,59.5,342,22.3,345c-20.5,0.7-40.9,1.9-61.4,3.8c-11.1,0.5-22.2,0.8-33.4,1
	c-2.8,0.1-6.2,0.2-9.9,0.3c-7.9,0.3-17.1,0.7-24.9,0.5c-5.9-0.2-10.1-0.6-12.2-1.4c-0.2-0.1-0.3-0.1-0.4-0.1
	c0.1-0.2,0.3-0.4,0.7-0.7c0.2-0.1,0.7-0.5,1.7-1c1-0.5,2.3-1.1,3.8-1.7c3-1.2,6.7-2.6,10.4-3.8C-95.8,339.2-88.7,337.1-88,336.9z
	 M187.9,296.9c1.5-0.2,3-0.3,4.5-0.5c-15.4-1.7-31-3-46.6-4.1c-37,5-73.8,10.8-110.4,17.4c10.3-0.9,20.6-1.7,30.9-2.6
	c0.7-0.1,2.5-0.2,5.5-0.4C88.3,305.6,138.6,301.8,187.9,296.9z M250.4,299.9c-4.2-1.1-9.1-2.1-14.1-2.9c8.3-1,16.3-2.1,23.5-3.1
	c0.1,0.3,0.2,0.6,0.3,0.9c0.9,2.7,3.1,5.2,6.6,7.7c9.5,6.7,22.3,11.4,35.3,14.9c13.1,3.5,26.8,6,38.4,7.9c2.6,0.4,5.2,0.9,7.9,1.3
	c-13.7,3-27.2,6.2-40.6,9.6c-0.2,0.1-0.5,0.1-0.9,0.2c-0.3,0.1-0.6,0.2-1,0.2c-1.4,0.3-3.5,0.8-5.9,1.4c-0.5,0-0.9-0.1-1.4-0.1
	c-50.1-3-106.1-1.8-114.3-1.4c-32.2,1.6-64.2,4.3-96,7.8l-3.1,0c16.6-1.8,33.1-3.7,49.6-5.7l2.9-0.4c36.6-4.5,75.5-9.3,110.5-19.7
	c6.7-2,11.3-4,13.7-6.3c1.3-1.2,2-2.7,1.8-4.3c-0.2-1.6-1.3-2.8-2.6-3.8C258.5,302.4,254.5,301,250.4,299.9z M215.9,294
	c16.2-1.8,31.6-3.7,44.6-5.7c0.2-0.4,0.4-0.8,0.7-1.3c2.1-3.2,5.9-6,10.4-8.4c-33.5,2.8-66.9,6.3-100.1,10.4
	C186.5,290.4,201.3,292,215.9,294z M266.9,293.5c-0.1-0.2-0.1-0.5-0.2-0.7c0.2,0,0.4-0.1,0.6-0.1c0.2,0,0.5-0.1,0.7-0.1
	c10.7-1.7,19.7-3.5,26-5.3c3.1-0.9,5.8-1.9,7.8-2.9c1.8-1,4-2.6,3.6-5c-0.2-1.2-0.7-2.3-1.4-3.2c15.4-1.1,30.7-2,46.1-2.8
	c43.3-0.1,86.7,0.5,130.1,2.2c46.5,1.8,95.2,4.3,141.6,11.5c-61.6,0.9-123.5,6.5-179.7,21.5c-2.4,0.6-4.5,1.3-6.4,2
	c-24.5,3.7-48.8,7.9-72.7,12.8c-7.1-1-14.2-2.1-21.2-3.3c-11.6-2-24.9-4.3-37.5-7.8c-12.7-3.4-24.3-7.8-32.9-13.8
	C268.7,296.6,267.4,294.9,266.9,293.5z M295,276.8c-1.9,0.1-3.9,0.3-5.8,0.4c-2.7,1-5.4,2-7.9,3.1c-4.9,2.1-8.8,4.3-11.3,6.5
	c9-1.5,16.4-3,21.6-4.5c2.9-0.8,4.9-1.6,6.1-2.2c0.4-0.2,0.6-0.3,0.7-0.4C298,278.6,297,277.7,295,276.8z M480.7,270.3
	c-9.7-0.4-19.5-0.7-29.2-1c95.1-2.7,191.4-2.1,284.9,6.5c2.3,0.2,4.9,0.4,7.7,0.6c7.8,0.6,17.3,1.4,26.7,2.7c6.4,0.9,12.6,2,18,3.5
	c5.4,1.5,9.8,3.3,12.7,5.4c1.7,1.2,1.5,1.8,1.5,1.9c-0.1,0.4-0.7,1-2.3,1.9c-1.6,0.9-3.7,1.6-5.5,2.2c-17-1.6-30.8-2.5-36.7-2.8
	c-0.6,0-1.1-0.1-1.5-0.1c-33.9-2.1-69.3-3.8-105.1-4.1C596.4,275.6,536.4,272.5,480.7,270.3z M491.7,303.3
	c51.1-8.8,105.3-11.5,159-11c0.6,0.1,1.1,0.2,1.7,0.4C599,294,545,297.4,491.7,303.3z M438.2,315.7c77.1-11.4,156.8-16.9,235-18.1
	c2.4,0.6,4.8,1.3,7.2,1.9c6.3,1.8,11.6,3.8,15.8,6c2.5,1.4,4.5,2.8,5.9,4.1c-48.4,5.4-97.3,8.7-146.1,10.3c-4.3,0.1-8.7,0.3-13,0.5
	c-33.2,1.2-67.8,2.4-99.4-2.8c-3.1-0.5-5.1-1-6.4-1.5c0.1-0.1,0.3-0.2,0.5-0.2C437.8,315.8,438,315.7,438.2,315.7z M556.2,325.2
	c49.6-1.6,99.3-5,148.4-10.5c0,1.2-0.5,2.4-1.7,3.7c-2,2.4-6.1,5.1-13.3,7.9c-10.6,4.1-22,7.5-33.9,10.4
	c-31.3,0.1-62.5-0.4-93.7-1.1c-60.6-1.4-122.4-2.8-182.4-10.1c16.3-3.2,32.8-6,49.5-8.6c0.4,1.7,2.3,2.8,3.8,3.5
	c2.1,0.9,5.1,1.6,8.9,2.3c32.6,5.4,68.2,4.1,101.3,2.9C547.6,325.5,551.9,325.4,556.2,325.2z M561.9,341c22.9,0.5,45.8,0.9,68.7,1
	c-5.8,1-11.7,2-17.6,2.9c-17.9,2.7-35.9,4.7-53.4,6.7c-9.3,1.1-18.4,2.1-27.4,3.2c-50.5,6.3-101.2,11.3-152.2,13.1
	c1.7-2,2.7-4,2.9-6c0.3-2.4-0.6-4.7-2.3-6.6c-3.3-3.8-9.8-6.6-17.6-8.8c-11.7-3.3-28-5.5-45.9-7.1c15.2-3.8,30.7-7.3,46.3-10.5
	c65.2,9.1,132.8,10.6,198.3,12.1L561.9,341z M373.3,365.9c-0.7,0.7-1.4,1.4-2.1,2c-23.2,0-46.3,0.6-68.8,1.2
	c-10.7-0.3-20.9-1.1-28.5-2.6c-3.9-0.8-6.9-1.7-8.9-2.7c-2-1-2.7-1.9-2.9-2.7c-0.1-0.3,0-0.5,0-0.9c0.6-0.4,1.1-0.8,1.5-1.4
	c0.2-0.4,0.4-0.8,0.4-1.2c0.7-0.7,1.7-1.4,3-2.2c3.8-2.3,9.4-4.6,15.4-6.6c6.4-2.2,13.1-4,18.4-5.3c23.8,1.5,45.7,4,59.8,8
	c7.5,2.1,12.1,4.4,14.2,6.7c0.9,1.1,1.3,2.1,1.2,3.3C375.8,362.6,375,364.1,373.3,365.9z M261,368.2c1.6,0.8,3.5,1.5,5.5,2.1
	c-81.6,3.2-163.1,9.7-243.8,18.6c-62.8,6.9-126.5,15.4-187.4,29.2c-0.3,0.1-0.9,0.2-1.7,0.4c-5.1,1.1-19,4-29.7,7.9
	c-2.2,0.8-4.4,1.7-6.3,2.6c-22.4-3.7-44.7-7.7-66.8-11.9c54.8-16.4,112.6-28.3,170.4-38.8c108,0.9,217.9,1.5,325.1-11
	c0.6-0.1,1.2-0.1,1.9-0.2c3.6-0.4,8.5-1,13.4-1.7c4.7-0.7,9.6-1.6,13.7-2.6C256.2,365.1,258.4,366.9,261,368.2z M-164.6,423.6
	c-5.2,1.1-17.4,3.7-27.2,7.1c34.4,5.5,69.1,10.2,103.9,13.7c37.5-2.8,74.8-6.2,111.8-9.9c78.1-7.9,155.8-18.3,232.2-32.6
	c5.4-1,11.5-2,18-3.1c14.1-2.4,30.1-5.1,45.7-8.8c16.9-4.1,32.5-9.3,43.8-16.2c-4,0.1-8,0.2-12,0.2c-0.9,0-2.6,0.1-4.8,0.1
	c-8.8,0.3-26.9,0.9-44.2,0.4l-2.4,0.1c-92.4,2.5-184.8,9.6-276.2,19.7c-62.7,6.9-126,15.3-186.4,29
	C-163.1,423.3-163.8,423.5-164.6,423.6z M-280.3,420.5c23.5,4.5,47.2,8.9,71.1,12.8c-0.6,0.5-1,1.1-1.4,1.7c-1.4,2-1.6,4.3-0.1,6.6
	c1.4,2.1,4,3.9,7.6,5.5c2.5,1.1,5.1,2.1,7.7,3.1c-48.6,1.5-97.2,1.2-145.3-1.6c0.3-0.4,0.7-0.9,1.1-1.3c6.1-6.4,16.5-11.8,28.1-16.4
	c9.8-3.9,20.2-7.1,29.3-9.8l0.1,0C-281.5,420.9-280.9,420.7-280.3,420.5z M-199.5,442.5c6.2,2.8,13,5.1,20.1,7.2
	c20.5-0.8,41-1.8,61.5-3.1c-27.8-3.3-55.5-7.3-83-11.8c-1.7,1-2.8,1.9-3.3,2.7c-0.5,0.7-0.5,1.2-0.1,1.8
	C-203.9,440-202.5,441.2-199.5,442.5z M-341,453.9c53.2,3.1,106.9,3.1,160.5,1.1c6,1.7,12.2,3.1,18.5,4.4
	c-22.1,3.3-44.2,6.9-66.2,10.9c-15.8-0.7-31.6-1.7-47.3-3.1c-0.5,0-1.5-0.1-2.8-0.2c-7-0.5-24.4-1.6-39.5-4.5
	c-9.1-1.7-16.7-3.9-20.9-6.7C-339.7,455.2-340.5,454.6-341,453.9z M-160.6,454.2c5.1,1,10.3,1.9,15.5,2.7
	c18.1-2.5,36.2-4.9,54.4-6.9C-113.9,451.7-137.2,453.1-160.6,454.2z M-201.7,471.1c18.8-3.2,37.7-6.1,56.6-8.8
	c3.7,0.6,7.3,1.1,11,1.5c16.6,2.1,33.5,3.5,49.4,4.6C-123.8,470.8-162.8,471.9-201.7,471.1z M-79.5,463.6c4,0.3,7.9,0.6,11.8,0.9
	c0.3-0.2,0.6-0.3,1-0.5c8.9-4.3,19.4-7.4,30.6-9.8c-8.5-0.5-16.9-1.2-25.4-1.9c-21.2,2.1-42.3,4.5-63.4,7.3
	C-109.5,461.3-94,462.5-79.5,463.6z M-65.6,472.6c5.9-0.4,11.9-0.8,17.8-1.3c137.6,10.4,277.3,9.5,415,3.2
	c65.1-3,130.5-6.7,195.2-13.4l0.1,0l0.2,0l0.6-0.1c0.2,0,0.5,0,0.8-0.1c0.4,0,0.8-0.1,1.3-0.1c1.8-0.2,4.2-0.4,6.9-0.7
	c5.4-0.6,12.2-1.5,18.1-2.7c2.9-0.6,5.8-1.3,8.1-2.1c0.1,0,0.2-0.1,0.4-0.1c77.6-1.8,155.5-4.5,232.8-10.2c-0.6,0.2-1.3,0.4-1.9,0.6
	c-13.5,4-29.5,6.5-33,7c-0.2,0-0.4,0.1-0.5,0.1c-37.1,6-75.3,9.2-113.3,12.5c-3.4,0.3-6.8,0.6-10.2,0.9
	c-178.7,15.4-358.2,20.8-538.2,21.4c-7.8,0-15.6,0.1-23.5,0.1c-51.4,0.4-104.2,0.8-153.4-8.1c-0.1,0-0.2,0-0.3,0
	c-2.1-0.4-11.3-2-17.9-4.5c-1.7-0.6-3.2-1.3-4.3-2C-65.1,473-65.3,472.8-65.6,472.6z M301.1,436.9c-0.8,0.1-1.7,0.2-2.5,0.3
	c-7.1,1-14.5,2.2-22.6,3.6c-2.7,0.5-5.5,0.7-8.3,0.9l-0.7,0.1c-2.6,0.2-5,0.4-7.3,0.7c-4.8,0.7-7.8,1.7-9.3,3.5
	c0.7,0.2,1.8,0.5,3.4,0.7c2.1,0.3,4.5,0.5,7,0.7c0.2,0,0.3,0,0.5,0l0.5,0c2,0.1,4.1,0.3,5.7,0.5c20.5,2.5,37.1,3.3,58.5,4
	c64.6,2.2,129.5,1,194.2-0.3l0.1,0c5.2-0.1,10.3-0.2,15.5-0.3c20.4-0.4,40.8-0.8,61.3-1.3c0.5-0.2,0.8-0.4,1-0.5
	c-0.7-0.6-2.4-1.4-5.8-2.5c-22.3-7-49.5-7.9-74.7-8.7c-3.2-0.1-6.3-0.2-9.4-0.3C439.3,435.5,370.1,435.6,301.1,436.9z M243.8,444
	c0.3-0.5,0.7-1,1.1-1.4c-10.4,1-20.7,2-31.1,3l-7.4,0.7c-0.7,0.3-1.6,0.5-2.5,0.7c-6.3,1.6-12.8,2.3-19.2,2.7
	c-2.9,0.2-5.6,0.3-8.3,0.4c-3.5,0.1-6.9,0.3-10.4,0.5c-4.1,0.3-8.1,0.6-12,0.9c-15.2,1.6-30.5,3.2-45.9,4.8
	c-39.9,4.2-80.1,8.5-120.5,12.1c125.8,7.8,253.2,6.5,379.1,0.8c64-2.9,128.2-6.6,191.7-13.1c-7.5,0.2-15,0.3-22.5,0.4
	c-5.2,0.1-10.4,0.2-15.6,0.3c-64.7,1.2-129.9,2.5-194.7,0.3c-21.5-0.7-38.3-1.5-59.3-4.1c-1.4-0.2-3.1-0.3-5.2-0.4
	c-0.2,0-0.4,0-0.6,0c-0.2,0-0.3,0-0.5,0c-2.4-0.2-5.2-0.4-7.6-0.7c-2.3-0.3-4.9-0.8-6.8-1.9c-1-0.6-2.1-1.4-2.5-2.6
	C242.8,446.1,243.2,445,243.8,444z M344.3,426.2c-16.9,1.8-30.5,3.4-44.7,5.5c-2,0-3.9,0.1-5.9,0.1c-54.2,1.1-108.5,2.8-162.7,6.1
	c-40-0.2-79.7,0.9-119.2,3.3c4.3-0.4,8.7-0.9,13-1.3c78.3-7.9,156.3-18.3,232.9-32.8c5.1-1,11-2,17.4-3c14.2-2.4,30.9-5.2,46.7-9
	c20.1-4.8,39.7-11.5,52.4-21.6c1.7-0.1,3.3-0.1,5-0.2c30.5,0.2,60.8,1.7,90.1,5.8l0.1,0c2.6,0.4,17.6,2.5,29.1,6
	c2.9,0.9,5.4,1.8,7.5,2.8c2.1,1,3.4,1.9,4,2.7c0.6,0.7,0.6,1.1,0.4,1.6c-0.3,0.6-1.3,1.7-4,3.1c-16.6,8.5-37.5,14.1-59.5,18.1
	c-5.4,0.5-10.9,1-16.3,1.6c-3.8,0.4-6.7,0.8-8.8,1.1c-1,0.2-1.9,0.3-2.6,0.5c-0.6,0.1-1.4,0.3-2,0.6c-0.2,0.1-0.9,0.4-1.4,1
	c-7.8,1-15.5,2-22.9,2.9c-5.1,0.6-10.2,1.2-15,1.8l-1,0.1C366,423.9,355.1,425,344.3,426.2z M-28.6,449.3
	c23.7-1.9,47.5-3.4,71.3-4.5c-4.6,0.4-9.5,0.8-14.6,1.3c-12.4,1-26.1,2.2-39.3,3.9c-0.4,0.1-0.9,0.1-1.3,0.2
	C-17.9,449.9-23.2,449.6-28.6,449.3z M47.1,449.7c-5.8,0.6-11.9,1.1-18.3,1.6c24.1,0.3,48.1-0.2,72.1-1.6
	c18.5-1.1,34.7-2.2,52.3-3.4c9.6-1,19.2-2,28.8-2.9l3.9-0.4c-0.5,0-0.9,0-1.4,0c-11-0.2-24-0.1-35.2,0c-6.9,0.1-13.1,0.1-17.8,0.1
	l-0.2,0C103.1,444.8,75.1,447,47.1,449.7z M-55.8,465.4c12.5-4.8,27.8-7.8,43.7-9.9c22.4,1,44.9,1.5,67.3,1.2
	c-34.3,3.5-68.6,6.8-103,9.4C-50.4,465.8-53.1,465.6-55.8,465.4z M208.5,439.8c0.4,0.2,0.9,0.5,1.4,0.9l3.1-0.3
	c6-0.6,12.1-1.2,18.1-1.8c-7.9,0.2-15.8,0.5-23.6,0.8C207.8,439.5,208.2,439.7,208.5,439.8z M-308.9,409.4
	c-5.6-1.1-12.6-2.5-20.6-4.1c17.9-5.2,36.9-10.4,47.8-13.1c25-6.2,50.5-11.4,76.3-16c25.1,1.6,50.3,1.8,75.1,1.9l3.2,0
	c-52,9.9-103.8,21.4-153.1,36.6l-0.6,0.2c-7.4-1.4-14.8-2.9-22.1-4.3C-304.7,410.3-306.7,409.9-308.9,409.4z M-130,372.8
	c-16.8-0.1-33.8-0.2-50.6-0.8c37-5.9,74.4-10.6,111.6-14.9c10.2-1.2,20.4-2.2,30.6-3.1c20.4-0.9,40.9-2.1,61.3-3.7
	c7.4-0.2,14.8-0.4,22.2-0.5c-31.8,4.2-63.4,9.2-94.9,14.6c-16.5,2.8-33.2,5.7-49.8,8.8l-7.4-0.1c-3.2,0-6.3-0.1-9.5-0.1
	C-121.1,372.9-125.5,372.8-130,372.8z M-48.3,369.5c45.3-7.8,90.9-14.6,136.9-19.7c53.9,0.4,109.4,0.9,161.8,7.8
	c0.4,0.1,0.9,0.1,1.3,0.2c0.3,0,0.6,0.1,0.9,0.1c-3.5,0.9-7.9,1.7-12.4,2.4c-4.8,0.7-9.5,1.2-13.1,1.7c-0.7,0.1-1.4,0.2-2,0.2
	c-97.2,11.3-196.7,11.8-295.4,11.1C-62.9,372-55.6,370.7-48.3,369.5z M262.5,351.3c-1.1,0.7-2.2,1.4-3.2,2.2c-1-0.2-2.1-0.4-3.1-0.6
	c-1.1-0.2-2.3-0.3-3.4-0.5c-0.2,0-0.4-0.1-0.6-0.1c-0.2,0-0.4-0.1-0.6-0.1c-36.9-4.9-75.5-6.7-113.6-7.4c15.5-1.3,31-2.3,46.6-3.1
	c7.2-0.4,53.5-1.4,99.2,0.6c-1.5,0.5-2.9,0.9-4.4,1.4C273.2,346.1,267,348.6,262.5,351.3z M700.3,301.3c-2.6-1.4-5.5-2.7-8.7-3.9
	c18.8-0.1,37.5,0,56,0.4c10,0.2,20.2,0.4,30.5,0.8c-17,3.8-36.7,6.3-52.8,8.3l-0.5,0.1c-5,0.6-10.1,1.2-15.1,1.8
	C707.6,306,704.3,303.4,700.3,301.3z M-5.3,312c40.9-8.1,82-15.1,123.4-21.1c-45.9-2-92.4-1.7-138.2-0.2c-39.4,3.1-78.7,6.5-118,9.9
	c-52.3,4.6-104.6,9.5-156.4,16c-0.6,0.1-1.4,0.2-2.2,0.3c-4.5,0.6-11.7,1.5-19.2,2.5c-7.2,1-14.4,2.2-19.5,3.2
	c0.3,0,0.6,0.1,0.9,0.1c43.5,4.8,89.7,3.2,134.2,1.7c3.6-0.1,7.2-0.2,10.8-0.4c58.6-2,117.2-5.8,175.6-10.3
	C-10.8,313.1-8,312.6-5.3,312z M-72.5,239.2c-2.3,0-4.6-0.1-6.9-0.1c2.6-0.2,5.1-0.4,7.7-0.7C-72,238.7-72.2,238.9-72.5,239.2z
	 M-141.1,238.2c25.5-1.5,51-3.5,76.4-5.8c0.4-0.3,0.8-0.5,1.2-0.8c4.4-3,9.4-5.9,14.9-8.6c-33.1,4.4-66.3,8.4-99.5,12.1
	c-4.1,1-8.2,2-12.2,3C-154,238.2-147.5,238.2-141.1,238.2z M448.1,244.6c24.6,2.2,49.7,2.8,74.6,3.2c27.5-3.3,54.8-7,81.7-11.2
	c3.4-0.5,7.4-1.2,11.7-1.9c-34.8,0.5-69.5,1.8-103.7,4.1C490.8,240.2,469.4,242.1,448.1,244.6z"/>
</svg>
